<svg width="24" height="24" viewBox="0 0 24 24" fill="none" xmlns="http://www.w3.org/2000/svg">
    <path
        d="M4.6531 17.0454L5.34731 16.7616H5.34731L4.6531 17.0454ZM4.30609 11.4445L3.58237 11.2477L3.58237 11.2477L4.30609 11.4445ZM19.6939 11.4445L20.4176 11.2477V11.2477L19.6939 11.4445ZM19.3469 17.0454L18.6527 16.7616V16.7616L19.3469 17.0454ZM14.0365 20.8418L13.9211 20.1007H13.9211L14.0365 20.8418ZM9.96352 20.8418L10.0788 20.1007H10.0788L9.96352 20.8418ZM8.08242 7.7846L7.93367 7.0495L8.08242 7.7846ZM15.9176 7.7846L15.7688 8.51971L15.9176 7.7846ZM9.21479 20.7253L9.09946 21.4664H9.09947L9.21479 20.7253ZM4.74599 17.2726L4.05177 17.5565H4.05177L4.74599 17.2726ZM14.7852 20.7253L14.9005 21.4664H14.9005L14.7852 20.7253ZM19.254 17.2726L19.9482 17.5565V17.5565L19.254 17.2726ZM19.6174 11.163L18.8937 11.3598L18.8937 11.3598L19.6174 11.163ZM4.38262 11.163L5.10635 11.3598L5.10635 11.3598L4.38262 11.163ZM14.6699 19.9842L13.9211 20.1007L14.1518 21.5829L14.9005 21.4664L14.6699 19.9842ZM10.0788 20.1007L9.33011 19.9842L9.09947 21.4664L9.84819 21.5829L10.0788 20.1007ZM18.8937 11.3598L18.9702 11.6412L20.4176 11.2477L20.3411 10.9662L18.8937 11.3598ZM18.6527 16.7616L18.5598 16.9888L19.9482 17.5565L20.0411 17.3293L18.6527 16.7616ZM5.4402 16.9888L5.34731 16.7616L3.95889 17.3293L4.05177 17.5565L5.4402 16.9888ZM5.02981 11.6412L5.10635 11.3598L3.6589 10.9662L3.58237 11.2477L5.02981 11.6412ZM5.34731 16.7616C4.67945 15.1282 4.56875 13.3369 5.02981 11.6412L3.58237 11.2477C3.03448 13.2627 3.16667 15.3918 3.95889 17.3293L5.34731 16.7616ZM18.9702 11.6412C19.4313 13.3369 19.3205 15.1282 18.6527 16.7616L20.0411 17.3293C20.8333 15.3918 20.9655 13.2627 20.4176 11.2477L18.9702 11.6412ZM13.9211 20.1007C12.6488 20.2987 11.3512 20.2987 10.0788 20.1007L9.84819 21.5829C11.2734 21.8047 12.7266 21.8047 14.1518 21.5829L13.9211 20.1007ZM8.23117 8.51971C10.7161 8.01687 13.2839 8.01687 15.7688 8.51971L16.0663 7.0495C13.3851 6.50694 10.6149 6.50694 7.93367 7.0495L8.23117 8.51971ZM9.33011 19.9842C7.55413 19.7078 6.08232 18.5592 5.4402 16.9888L4.05177 17.5565C4.9021 19.6361 6.82848 21.1129 9.09946 21.4664L9.33011 19.9842ZM14.9005 21.4664C17.1715 21.1129 19.0979 19.6361 19.9482 17.5565L18.5598 16.9888C17.9177 18.5592 16.4458 19.7078 14.6699 19.9842L14.9005 21.4664ZM15.7688 8.51971C17.3088 8.83133 18.5082 9.94221 18.8937 11.3598L20.3411 10.9662C19.7992 8.9732 18.1334 7.46778 16.0663 7.0495L15.7688 8.51971ZM7.93367 7.0495C5.86662 7.46778 4.20082 8.9732 3.6589 10.9662L5.10635 11.3598C5.4918 9.94221 6.69121 8.83133 8.23117 8.51971L7.93367 7.0495Z"
        fill="black" />
    <path
        d="M15.1767 8.02577L14.4901 7.72404L14.4901 7.72404L15.1767 8.02577ZM14.277 8.2088C14.1104 8.58802 14.2827 9.03052 14.6619 9.19716C15.0411 9.3638 15.4836 9.19148 15.6503 8.81226L14.277 8.2088ZM8.82164 8.02577L9.50827 7.72404L9.50827 7.72404L8.82164 8.02577ZM8.34803 8.81226C8.51467 9.19148 8.95718 9.3638 9.33639 9.19716C9.71561 9.03052 9.88793 8.58802 9.72129 8.2088L8.34803 8.81226ZM11.2421 3.0742L11.3683 3.81351L11.3683 3.81351L11.2421 3.0742ZM11.3596 3.05415L11.2334 2.31484L11.2334 2.31484L11.3596 3.05415ZM12.6388 3.05415L12.5126 3.79346L12.5126 3.79346L12.6388 3.05415ZM12.7562 3.0742L12.8824 2.33489L12.8824 2.33489L12.7562 3.0742ZM15.4245 5.54836L16.157 5.38741L15.4245 5.54836ZM8.57382 5.54836L9.30634 5.70931V5.70931L8.57382 5.54836ZM14.4901 7.72404L14.277 8.2088L15.6503 8.81226L15.8633 8.3275L14.4901 7.72404ZM8.13501 8.3275L8.34803 8.81226L9.72129 8.2088L9.50827 7.72404L8.13501 8.3275ZM11.3683 3.81351L11.4857 3.79346L11.2334 2.31484L11.1159 2.33489L11.3683 3.81351ZM12.5126 3.79346L12.63 3.81351L12.8824 2.33489L12.7649 2.31484L12.5126 3.79346ZM14.692 5.70931C14.8402 6.38397 14.7704 7.08613 14.4901 7.72404L15.8633 8.3275C16.2708 7.40023 16.3738 6.37415 16.157 5.38741L14.692 5.70931ZM7.84129 5.38741C7.62449 6.37415 7.72753 7.40024 8.13501 8.3275L9.50827 7.72404C9.22794 7.08613 9.15811 6.38397 9.30634 5.70931L7.84129 5.38741ZM11.4857 3.79346C11.8253 3.73551 12.173 3.73551 12.5126 3.79346L12.7649 2.31484C12.2584 2.22839 11.7399 2.22839 11.2334 2.31484L11.4857 3.79346ZM16.157 5.38741C15.8094 3.80521 14.5005 2.61105 12.8824 2.33489L12.63 3.81351C13.68 3.99271 14.4826 4.75649 14.692 5.70931L16.157 5.38741ZM9.30634 5.70931C9.5157 4.75649 10.3183 3.99271 11.3683 3.81351L11.1159 2.33489C9.49785 2.61105 8.18893 3.80521 7.84129 5.38741L9.30634 5.70931Z"
        fill="#046C62" />
</svg>
