<svg width="24" height="24" viewBox="0 0 24 24" fill="none" xmlns="http://www.w3.org/2000/svg">
<path d="M3.20312 8.7002H20.798" stroke="#046C62" stroke-width="1.5"/>
<path d="M2.88539 8.84875C3.55805 6.13983 5.70602 4.04534 8.43056 3.44162L8.88443 3.34105C10.9366 2.88632 13.0634 2.88632 15.1156 3.34105L15.5694 3.44162C18.294 4.04534 20.442 6.13984 21.1146 8.84875C21.6285 10.9182 21.6285 13.0819 21.1146 15.1512C20.442 17.8602 18.294 19.9547 15.5694 20.5584L15.1156 20.659C13.0634 21.1137 10.9366 21.1137 8.88443 20.659L8.43056 20.5584C5.70601 19.9547 3.55805 17.8602 2.88539 15.1513C2.37154 13.0819 2.37154 10.9181 2.88539 8.84875Z" stroke="#046C62" stroke-width="1.5"/>
<path d="M2.88539 15.1513L2.1575 15.332L2.88539 15.1513ZM2.88539 8.84875L3.61329 9.02949L2.88539 8.84875ZM21.1146 8.84875L21.8425 8.66801L21.1146 8.84875ZM20.3867 14.9705C20.2869 15.3725 20.5319 15.7793 20.9339 15.8791C21.3359 15.979 21.7427 15.734 21.8425 15.332L20.3867 14.9705ZM8.72217 21.3912C9.12658 21.4808 9.52706 21.2256 9.61667 20.8212C9.70628 20.4168 9.45109 20.0163 9.04668 19.9267L8.72217 21.3912ZM8.88443 3.34105L9.04668 4.07329L8.88443 3.34105ZM15.1156 3.34105L15.2778 2.60881V2.60881L15.1156 3.34105ZM8.43056 20.5584L8.59281 19.8261H8.59281L8.43056 20.5584ZM15.5694 3.44162L15.4072 4.17386V4.17386L15.5694 3.44162ZM8.43056 3.44162L8.2683 2.70938V2.70938L8.43056 3.44162ZM8.59281 4.17386L9.04668 4.07329L8.72218 2.60881L8.2683 2.70938L8.59281 4.17386ZM14.9533 4.07329L15.4072 4.17386L15.7317 2.70938L15.2778 2.60881L14.9533 4.07329ZM9.04668 19.9267L8.59281 19.8261L8.2683 21.2906L8.72217 21.3912L9.04668 19.9267ZM3.61329 14.9705C3.1289 13.0198 3.1289 10.9802 3.61329 9.02949L2.1575 8.668C1.61417 10.8561 1.61417 13.1439 2.1575 15.332L3.61329 14.9705ZM20.3867 9.0295C20.8711 10.9802 20.8711 13.0198 20.3867 14.9705L21.8425 15.332C22.3858 13.1439 22.3858 10.8561 21.8425 8.66801L20.3867 9.0295ZM9.04668 4.07329C10.992 3.64224 13.008 3.64224 14.9533 4.07329L15.2778 2.60881C13.1188 2.1304 10.8812 2.1304 8.72218 2.60881L9.04668 4.07329ZM8.59281 19.8261C6.14627 19.284 4.21736 17.4032 3.61329 14.9705L2.1575 15.332C2.89874 18.3171 5.26576 20.6253 8.2683 21.2906L8.59281 19.8261ZM15.4072 4.17386C17.8537 4.71598 19.7826 6.5968 20.3867 9.0295L21.8425 8.66801C21.1013 5.68288 18.7342 3.3747 15.7317 2.70938L15.4072 4.17386ZM8.2683 2.70938C5.26576 3.3747 2.89874 5.68288 2.1575 8.668L3.61329 9.02949C4.21736 6.59679 6.14627 4.71598 8.59281 4.17386L8.2683 2.70938Z" fill="black"/>
<path d="M7 12L11 12" stroke="#046C62" stroke-width="1.5" stroke-linecap="round"/>
</svg>
