<svg width="24" height="24" viewBox="0 0 24 24" fill="none" xmlns="http://www.w3.org/2000/svg">
<path d="M15.0496 3.35288C17.827 4.00437 19.9956 6.17301 20.6471 8.95043C21.1176 10.9563 21.1176 13.0437 20.6471 15.0496C19.9956 17.827 17.827 19.9956 15.0496 20.6471C13.0437 21.1176 10.9563 21.1176 8.95044 20.6471C6.17301 19.9956 4.00437 17.827 3.35288 15.0496C2.88237 13.0437 2.88237 10.9563 3.35288 8.95044C4.00437 6.17301 6.173 4.00437 8.95043 3.35288C10.9563 2.88237 13.0437 2.88237 15.0496 3.35288Z" stroke="#046C62" stroke-width="1.5"/>
<path d="M8.95043 3.35288L8.77915 2.6227L8.95043 3.35288ZM14.8783 4.08306C15.2816 4.17765 15.6852 3.92742 15.7798 3.52415C15.8743 3.12089 15.6241 2.71729 15.2208 2.6227L14.8783 4.08306ZM15.0496 20.6471L15.2208 21.3773L15.0496 20.6471ZM8.95044 20.6471L9.12171 19.9169L8.95044 20.6471ZM3.35288 15.0496L4.08306 14.8783L3.35288 15.0496ZM3.35288 8.95044L2.62269 8.77916L3.35288 8.95044ZM21.3773 15.2208C21.4719 14.8176 21.2217 14.414 20.8184 14.3194C20.4151 14.2248 20.0115 14.475 19.9169 14.8783L21.3773 15.2208ZM9.1217 4.08306C11.0149 3.63898 12.9851 3.63898 14.8783 4.08306L15.2208 2.6227C13.1024 2.12577 10.8976 2.12577 8.77915 2.6227L9.1217 4.08306ZM14.8783 19.9169C12.9851 20.361 11.0149 20.361 9.12171 19.9169L8.77916 21.3773C10.8976 21.8742 13.1024 21.8742 15.2208 21.3773L14.8783 19.9169ZM4.08306 14.8783C3.63898 12.9851 3.63898 11.0149 4.08306 9.12171L2.62269 8.77916C2.12577 10.8976 2.12577 13.1024 2.62269 15.2208L4.08306 14.8783ZM4.08306 9.12171C4.6695 6.62161 6.6216 4.6695 9.1217 4.08306L8.77915 2.6227C5.72441 3.33924 3.33924 5.72442 2.62269 8.77916L4.08306 9.12171ZM2.62269 15.2208C3.33924 18.2756 5.72441 20.6608 8.77916 21.3773L9.12171 19.9169C6.6216 19.3305 4.6695 17.3784 4.08306 14.8783L2.62269 15.2208ZM19.9169 14.8783C19.3305 17.3784 17.3784 19.3305 14.8783 19.9169L15.2208 21.3773C18.2756 20.6608 20.6608 18.2756 21.3773 15.2208L19.9169 14.8783Z" fill="black"/>
<path d="M14 10L10 14M14 14L10 10" stroke="#046C62" stroke-width="1.5" stroke-linecap="round"/>
</svg>
