<svg width="24" height="24" viewBox="0 0 24 24" fill="none" xmlns="http://www.w3.org/2000/svg">
<path d="M3.68687 14.9317L2.95669 15.103L3.68687 14.9317ZM3.68687 9.0687L2.95669 8.89742L3.68687 9.0687ZM20.3116 9.06871L19.5814 9.23998L20.3116 9.06871ZM20.3116 14.9317L19.5814 14.7604L20.3116 14.9317ZM14.9307 20.3126L14.7595 19.5824L14.9307 20.3126ZM9.06773 20.3126L9.23901 19.5824L9.06773 20.3126ZM9.06773 3.68785L9.239 4.41803L9.06773 3.68785ZM14.9307 3.68785L14.7595 4.41803L14.9307 3.68785ZM4.41705 14.7604C3.99119 12.9449 3.99119 11.0555 4.41705 9.23998L2.95669 8.89742C2.47798 10.9383 2.47798 13.0622 2.95669 15.103L4.41705 14.7604ZM19.5814 9.23998C20.0073 11.0555 20.0073 12.9449 19.5814 14.7604L21.0418 15.103C21.5205 13.0622 21.5205 10.9383 21.0418 8.89743L19.5814 9.23998ZM14.7595 19.5824C12.9439 20.0083 11.0545 20.0083 9.23901 19.5824L8.89645 21.0428C10.9373 21.5215 13.0612 21.5215 15.102 21.0428L14.7595 19.5824ZM9.239 4.41803C11.0545 3.99217 12.944 3.99217 14.7595 4.41803L15.102 2.95767C13.0612 2.47895 10.9373 2.47895 8.89645 2.95767L9.239 4.41803ZM9.23901 19.5824C6.84642 19.0212 4.97828 17.153 4.41705 14.7604L2.95669 15.103C3.64802 18.0502 5.94923 20.3514 8.89645 21.0428L9.23901 19.5824ZM15.102 21.0428C18.0492 20.3514 20.3505 18.0502 21.0418 15.103L19.5814 14.7604C19.0202 17.153 17.152 19.0212 14.7595 19.5824L15.102 21.0428ZM14.7595 4.41803C17.152 4.97925 19.0202 6.8474 19.5814 9.23998L21.0418 8.89743C20.3505 5.95021 18.0492 3.64899 15.102 2.95767L14.7595 4.41803ZM8.89645 2.95767C5.94923 3.64899 3.64802 5.9502 2.95669 8.89742L4.41705 9.23998C4.97828 6.8474 6.84642 4.97925 9.239 4.41803L8.89645 2.95767Z" fill="black"/>
<path d="M9 9H13M9 15H12M9 12H15" stroke="#046C62" stroke-width="1.5" stroke-linecap="round"/>
</svg>
