<svg width="147" height="168" viewBox="0 0 147 168" fill="none" xmlns="http://www.w3.org/2000/svg">
<circle cx="63" cy="63" r="63" fill="#E6F0F0"/>
<g clip-path="url(#clip0_3699_5671)">
<path d="M96.0859 132.672H64.9141C64.1814 133.595 39.6701 164.48 38.9375 165.402H122.062C121.33 164.479 96.8186 133.595 96.0859 132.672Z" fill="#EAFAFF"/>
<path d="M118.426 132.672H96.0859C96.8186 133.595 121.33 164.48 122.062 165.402H144.402C143.67 164.479 119.158 133.595 118.426 132.672Z" fill="#EFA696"/>
<path d="M80.5 149.037C80.3833 148.854 48.0953 98.2123 48.079 98.186C43.9461 91.9983 41.5352 84.5604 41.5352 76.5625C41.5352 55.0436 58.9811 37.5977 80.5 37.5977C102.019 37.5977 119.465 55.0436 119.465 76.5625C119.465 84.5604 117.054 91.9983 112.921 98.186C112.905 98.2113 80.6136 148.859 80.5 149.037ZM99.9621 89.5193C102.525 85.6908 103.879 81.2068 103.879 76.5625C103.879 63.6706 93.3919 53.1836 80.5 53.1836C67.6081 53.1836 57.1211 63.6706 57.1211 76.5625C57.1211 81.2068 58.4747 85.6908 61.0409 89.5244C65.4001 96.048 72.6705 99.9414 80.5 99.9414C88.3295 99.9414 95.5999 96.048 99.9621 89.5193Z" fill="#B3E2DE"/>
<path d="M42.5742 132.672C41.8416 133.595 17.3303 164.48 16.5977 165.402H38.9375C39.6701 164.479 64.1814 133.595 64.9141 132.672H42.5742Z" fill="#EFA696"/>
<path d="M96.0859 102.539C94.6522 102.539 93.4883 103.703 93.4883 105.137C93.4883 106.571 94.6522 107.734 96.0859 107.734C97.5197 107.734 98.6836 106.571 98.6836 105.137C98.6836 103.703 97.5197 102.539 96.0859 102.539Z" fill="black"/>
<path d="M40.5396 131.057L14.563 163.788C13.943 164.568 13.8253 165.635 14.2586 166.532C14.6919 167.43 15.601 168 16.5975 168H144.402C145.399 168 146.308 167.43 146.741 166.532C147.175 165.635 147.057 164.568 146.437 163.788L120.46 131.057C119.968 130.436 119.218 130.074 118.426 130.074H95.6708L115.097 99.6045C119.654 92.7725 122.062 84.805 122.062 76.5625C122.062 53.6453 103.418 35 80.4998 35C57.5816 35 38.9373 53.6453 38.9373 76.5625C38.9373 84.805 41.3452 92.7715 45.9023 99.6045L65.3289 130.074H42.574C41.7816 130.074 41.0327 130.436 40.5396 131.057ZM30.841 151.635H46.5476L37.6831 162.805H21.9754L30.841 151.635ZM68.6419 135.27L75.7632 146.439H57.3036L66.1691 135.27H68.6419ZM92.3587 135.27H94.8316L103.696 146.439H85.2375L92.3587 135.27ZM107.82 151.635L116.684 162.805H44.3153L53.1808 151.635H107.82ZM123.318 162.805L114.452 151.635H130.16L139.024 162.805H123.318ZM126.036 146.439H110.329L101.464 135.27H117.171L126.036 146.439ZM50.2392 96.743C46.2443 90.7623 44.1326 83.7842 44.1326 76.5625C44.1326 56.5098 60.4471 40.1953 80.4998 40.1953C100.553 40.1953 116.867 56.5098 116.867 76.5625C116.867 83.7842 114.755 90.7623 110.762 96.743C110.75 96.7583 110.741 96.7735 110.731 96.7887C109.025 99.4645 81.8139 142.145 80.4998 144.205C77.1949 139.021 53.6344 102.067 50.2686 96.7887C50.2595 96.7735 50.2493 96.7583 50.2392 96.743ZM59.5359 135.27L50.6714 146.439H34.9637L43.8292 135.27H59.5359Z" fill="black"/>
<path d="M80.5 102.539C94.7607 102.539 106.477 90.9907 106.477 76.5625C106.477 62.2389 94.8236 50.5859 80.5 50.5859C66.1764 50.5859 54.5234 62.2389 54.5234 76.5625C54.5234 90.9947 66.2433 102.539 80.5 102.539ZM80.5 55.7812C91.9591 55.7812 101.281 65.1034 101.281 76.5625C101.281 88.1282 91.884 97.3437 80.5 97.3437C69.1129 97.3437 59.7188 88.1282 59.7188 76.5625C59.7188 65.1034 69.0409 55.7812 80.5 55.7812Z" fill="black"/>
<path d="M91.4426 111.403C90.2148 110.662 88.6176 111.058 87.8769 112.286L78.2757 128.215C77.535 129.444 77.9307 131.04 79.1595 131.781C80.3934 132.525 81.9875 132.121 82.7252 130.897L92.3264 114.968C93.0671 113.74 92.6714 112.143 91.4426 111.403Z" fill="black"/>
</g>
<defs>
<clipPath id="clip0_3699_5671">
<rect width="133" height="133" fill="white" transform="translate(14 35)"/>
</clipPath>
</defs>
</svg>
