<svg width="24" height="24" viewBox="0 0 24 24" fill="none" xmlns="http://www.w3.org/2000/svg">
<path d="M0 12C0 18.6274 5.37258 24 12 24C18.6274 24 24 18.6274 24 12C24 5.37258 18.6274 0 12 0C5.37258 0 0 5.37258 0 12Z" fill="#5186EE"/>
<path d="M13.1569 18.7193V12.5886H15.3183L15.6419 10.1994H13.1568V8.67404C13.1568 7.98231 13.3586 7.51092 14.4005 7.51092L15.7293 7.51033V5.37343C15.4995 5.34436 14.7106 5.2793 13.793 5.2793C11.8771 5.2793 10.5654 6.3927 10.5654 8.43748V10.1994H8.39844V12.5886H10.5654V18.7193H13.1569Z" fill="white"/>
</svg>
