<svg width="24" height="24" viewBox="0 0 24 24" fill="none" xmlns="http://www.w3.org/2000/svg">
<g clip-path="url(#clip0_3560_1801)">
<path d="M5.31891 14.5036L4.4835 17.6223L1.43011 17.6869C0.517594 15.9944 0 14.0579 0 12.0001C0 10.0102 0.483938 8.13374 1.34175 6.48145H1.34241L4.06078 6.97982L5.25159 9.68188C5.00236 10.4085 4.86652 11.1885 4.86652 12.0001C4.86661 12.881 5.02617 13.725 5.31891 14.5036Z" fill="#FBBB00"/>
<path d="M23.7921 9.75781C23.9299 10.4837 24.0018 11.2334 24.0018 11.9996C24.0018 12.8587 23.9115 13.6967 23.7394 14.5051C23.1552 17.2558 21.6289 19.6578 19.5144 21.3576L19.5137 21.3569L16.0898 21.1822L15.6052 18.1572C17.0082 17.3343 18.1047 16.0466 18.6823 14.5051H12.2656V9.75781H18.776H23.7921Z" fill="#518EF8"/>
<path d="M19.5114 21.3577L19.5121 21.3584C17.4556 23.0113 14.8433 24.0004 11.9996 24.0004C7.42969 24.0004 3.45652 21.4461 1.42969 17.6872L5.31848 14.5039C6.33187 17.2085 8.94089 19.1338 11.9996 19.1338C13.3143 19.1338 14.546 18.7784 15.6029 18.158L19.5114 21.3577Z" fill="#28B446"/>
<path d="M19.6577 2.76263L15.7702 5.94525C14.6763 5.26153 13.3833 4.86656 11.9981 4.86656C8.87017 4.86656 6.21236 6.88017 5.24973 9.68175L1.3405 6.48131H1.33984C3.337 2.63077 7.36028 0 11.9981 0C14.9097 0 17.5794 1.03716 19.6577 2.76263Z" fill="#F14336"/>
</g>
<defs>
<clipPath id="clip0_3560_1801">
<rect width="24" height="24" fill="white"/>
</clipPath>
</defs>
</svg>
