<svg width="146" height="168" viewBox="0 0 146 168" fill="none" xmlns="http://www.w3.org/2000/svg">
<circle cx="63" cy="63" r="63" fill="#E6F0F0"/>
<g clip-path="url(#clip0_3758_6574)">
<path d="M111.449 76.8223V50.0664C111.449 43.1796 117.032 37.5977 123.918 37.5977C130.805 37.5977 136.387 43.1796 136.387 50.0664V71.627C136.387 74.4966 134.061 76.8223 131.191 76.8223H111.449Z" fill="#FEDA9B"/>
<path d="M123.917 37.5977H35.0781C28.1913 37.5977 22.6094 43.1796 22.6094 50.0664V146.179C22.6094 149.048 24.9351 151.374 27.8047 151.374H111.448V50.0664C111.448 43.1796 117.031 37.5977 123.917 37.5977Z" fill="white"/>
<path d="M89.1104 165.401L85.2879 156.229C83.9526 153.025 83.2656 149.586 83.2656 146.114V125.973C83.2656 122.93 85.7324 120.463 88.7755 120.463C91.1469 120.463 93.2524 121.98 94.0023 124.23L97.918 135.976C98.8627 138.811 101.516 140.724 104.506 140.724C108.341 140.724 111.449 137.616 111.449 133.78V82.9795L119.354 90.8689C125.99 97.4939 129.72 106.486 129.72 115.863V143.476C129.72 151.06 128.034 158.549 124.784 165.401" fill="#FFD0BB"/>
<path d="M50.5781 68.25H39.1484C37.7136 68.25 36.5508 67.0871 36.5508 65.6523V54.2227C36.5508 52.7879 37.7136 51.625 39.1484 51.625H50.5781C52.0119 51.625 53.1758 52.7879 53.1758 54.2227V65.6523C53.1758 67.0871 52.0119 68.25 50.5781 68.25Z" fill="#B3E2DE"/>
<path d="M50.5781 99.4219H39.1484C37.7136 99.4219 36.5508 98.259 36.5508 96.8242V85.3945C36.5508 83.9597 37.7136 82.7969 39.1484 82.7969H50.5781C52.0119 82.7969 53.1758 83.9597 53.1758 85.3945V96.8242C53.1758 98.259 52.0119 99.4219 50.5781 99.4219Z" fill="#B3E2DE"/>
<path d="M50.5781 130.593H39.1484C37.7136 130.593 36.5508 129.43 36.5508 127.995V116.566C36.5508 115.132 37.7136 113.969 39.1484 113.969H50.5781C52.0119 113.969 53.1758 115.132 53.1758 116.566V127.995C53.1758 129.43 52.0119 130.593 50.5781 130.593Z" fill="#B3E2DE"/>
<path d="M123.921 35H35.082C26.7746 35 20.0156 41.759 20.0156 50.0664V146.179C20.0156 150.476 23.5113 153.972 27.8086 153.972H61.9241C63.3589 153.972 64.5218 152.809 64.5218 151.374C64.5218 149.939 63.3589 148.776 61.9241 148.776H27.8086C26.3758 148.776 25.2109 147.611 25.2109 146.179V50.0664C25.2109 44.6235 29.6391 40.1953 35.082 40.1953H112.553C110.253 42.8417 108.854 46.2927 108.854 50.0664V133.78C108.854 136.177 106.905 138.126 104.508 138.126C102.635 138.126 100.978 136.932 100.385 135.155L96.4699 123.409C95.3649 120.093 92.2731 117.865 88.7784 117.865C84.3076 117.865 80.6709 121.502 80.6709 125.972V127.995H67.2067C65.7719 127.995 64.6091 129.159 64.6091 130.593C64.6091 132.028 65.7719 133.19 67.2067 133.19H80.6709V146.114C80.6709 149.949 81.4187 153.69 82.8941 157.229L86.7155 166.401C87.1316 167.398 88.0965 168 89.1143 168C89.4471 168 89.786 167.936 90.1118 167.8C91.437 167.248 92.063 165.727 91.511 164.403L87.6896 155.231C86.4801 152.328 85.8662 149.26 85.8662 146.115V125.973C85.8662 124.366 87.1721 123.061 88.7784 123.061C90.0336 123.061 91.1447 123.86 91.5415 125.051L95.4562 136.798C96.7571 140.699 100.395 143.321 104.508 143.321C109.77 143.321 114.05 139.041 114.05 133.78V89.2433L117.521 92.7075C123.715 98.8892 127.125 107.113 127.125 115.863V143.477C127.125 150.629 125.505 157.826 122.44 164.288C121.825 165.584 122.379 167.133 123.674 167.748C124.97 168.363 126.52 167.811 127.134 166.514C130.527 159.361 132.321 151.394 132.321 143.477V115.863C132.321 105.723 128.368 96.1941 121.191 89.0302L114.05 81.9019V79.4199H131.194C135.492 79.4199 138.987 75.9242 138.987 71.627V50.0664C138.987 41.759 132.229 35 123.921 35V35ZM133.792 71.627C133.792 73.0587 132.627 74.2246 131.194 74.2246H114.05V50.0664C114.05 44.6235 118.478 40.1953 123.921 40.1953C129.364 40.1953 133.792 44.6235 133.792 50.0664V71.627Z" fill="black"/>
<path d="M73.2656 148.776C72.5817 148.776 71.912 149.054 71.429 149.537C70.946 150.021 70.668 150.691 70.668 151.374C70.668 152.058 70.946 152.728 71.429 153.211C71.912 153.694 72.5817 153.972 73.2656 153.972C73.9485 153.972 74.6182 153.694 75.1022 153.211C75.5853 152.728 75.8633 152.058 75.8633 151.374C75.8633 150.691 75.5853 150.021 75.1022 149.537C74.6182 149.054 73.9485 148.776 73.2656 148.776Z" fill="black"/>
<path d="M55.7734 54.2227C55.7734 51.3581 53.4426 49.0273 50.5781 49.0273H39.1484C36.2829 49.0273 33.9531 51.3581 33.9531 54.2227V65.6523C33.9531 68.5169 36.2829 70.8477 39.1484 70.8477H50.5781C53.4426 70.8477 55.7734 68.5169 55.7734 65.6523V54.2227ZM50.5781 65.6523H39.1484V54.2227H50.5781L50.5812 65.6523C50.5812 65.6523 50.5802 65.6523 50.5781 65.6523Z" fill="black"/>
<path d="M55.7734 85.3945C55.7734 82.53 53.4426 80.1992 50.5781 80.1992H39.1484C36.2829 80.1992 33.9531 82.53 33.9531 85.3945V96.8242C33.9531 99.6887 36.2829 102.02 39.1484 102.02H50.5781C53.4426 102.02 55.7734 99.6887 55.7734 96.8242V85.3945ZM50.5781 96.8242H39.1484V85.3945H50.5781L50.5812 96.8242C50.5812 96.8242 50.5802 96.8242 50.5781 96.8242Z" fill="black"/>
<path d="M50.5781 111.371H39.1484C36.2829 111.371 33.9531 113.701 33.9531 116.566V127.995C33.9531 130.861 36.2829 133.19 39.1484 133.19H50.5781C53.4426 133.19 55.7734 130.861 55.7734 127.995V116.566C55.7734 113.701 53.4426 111.371 50.5781 111.371ZM50.5781 127.995H39.1484V116.566H50.5781L50.5812 127.995C50.5812 127.995 50.5802 127.995 50.5781 127.995Z" fill="black"/>
<path d="M96.9896 70.8477C98.4244 70.8477 99.5873 69.6848 99.5873 68.25C99.5873 66.8152 98.4244 65.6523 96.9896 65.6523H79.082C77.6472 65.6523 76.4844 66.8152 76.4844 68.25C76.4844 69.6848 77.6472 70.8477 79.082 70.8477H96.9896Z" fill="black"/>
<path d="M67.2031 70.8477C67.887 70.8477 68.5567 70.5696 69.0397 70.0866C69.5228 69.6036 69.8008 68.9329 69.8008 68.25C69.8008 67.5671 69.5228 66.8964 69.0397 66.4134C68.5567 65.9304 67.887 65.6523 67.2031 65.6523C66.5172 65.6523 65.8495 65.9304 65.3665 66.4134C64.8815 66.8964 64.6055 67.5671 64.6055 68.25C64.6055 68.9329 64.8815 69.6036 65.3665 70.0866C65.8495 70.5696 66.5172 70.8477 67.2031 70.8477Z" fill="black"/>
<path d="M67.2031 102.02H96.9899C98.4247 102.02 99.5876 100.857 99.5876 99.4219C99.5876 97.9871 98.4247 96.8242 96.9899 96.8242H67.2031C65.7693 96.8242 64.6055 97.9871 64.6055 99.4219C64.6055 100.857 65.7693 102.02 67.2031 102.02Z" fill="black"/>
</g>
<defs>
<clipPath id="clip0_3758_6574">
<rect width="133" height="133" fill="white" transform="translate(13 35)"/>
</clipPath>
</defs>
</svg>
