<svg width="40" height="40" viewBox="0 0 40 40" fill="none" xmlns="http://www.w3.org/2000/svg">
<path fill-rule="evenodd" clip-rule="evenodd" d="M0 0H40V40H0V0Z" fill="white"/>
<path fill-rule="evenodd" clip-rule="evenodd" d="M19.9587 28.9468C22.0728 30.8472 24.9119 31.9999 28 31.9999C34.6321 31.9999 40 26.7227 40 20.2321C40 13.7218 34.6321 8.44434 28 8.44434C24.9119 8.44434 22.0728 9.59682 19.9587 11.4975C17.5338 13.6608 16 16.7747 16 20.2321C16.0002 23.6896 17.5338 26.8036 19.9587 28.9468Z" fill="#E9B040"/>
<path fill-rule="evenodd" clip-rule="evenodd" d="M38.2227 27.0993C38.2227 26.859 38.415 26.667 38.6552 26.667C38.9195 26.667 39.1115 26.8592 39.1115 27.0993C39.1115 27.3639 38.9192 27.5559 38.6552 27.5559C38.415 27.5559 38.2227 27.3639 38.2227 27.0993ZM38.6552 27.46C38.8476 27.46 39.0154 27.2915 39.0154 27.0996C39.0154 26.9076 38.8473 26.7634 38.6552 26.7634C38.4866 26.7634 38.3188 26.9076 38.3188 27.0996C38.3188 27.2915 38.4869 27.46 38.6552 27.46ZM38.6071 27.3158H38.5109V26.9073H38.679C38.7033 26.9073 38.7514 26.9073 38.7752 26.9316C38.8233 26.9554 38.8233 26.9797 38.8233 27.0277C38.8233 27.0758 38.7995 27.1239 38.7514 27.1239L38.8476 27.3161H38.7271L38.679 27.1476H38.6071V27.3158V27.0755H38.7033C38.7271 27.0755 38.7271 27.0512 38.7271 27.0275C38.7271 27.0032 38.7271 27.0032 38.7033 26.9794H38.6071V27.3158Z" fill="#E9B040"/>
<path fill-rule="evenodd" clip-rule="evenodd" d="M23.9378 18.9787C23.8963 18.5542 23.8134 18.1499 23.7305 17.7251H16.3936C16.4765 17.3006 16.6009 16.8963 16.7251 16.4917H23.3782C23.2338 16.0661 23.0678 15.6477 22.8809 15.2381H17.2435C17.4508 14.8098 17.6791 14.3915 17.9274 13.9845H22.1764C21.903 13.5527 21.5983 13.1405 21.2646 12.7511H18.8395C19.2146 12.3042 19.6233 11.8851 20.0623 11.4975C17.9277 9.61705 15.1088 8.44434 12 8.44434C5.38859 8.44434 0 13.7218 0 20.2321C0 26.7227 5.38859 31.9999 12 31.9999C15.1088 31.9999 17.9274 30.8472 20.0623 28.9468C20.4945 28.5659 20.8964 28.1535 21.2646 27.7131H18.8395C18.5077 27.3088 18.2177 26.9045 17.9274 26.4595H22.1764C22.4436 26.0597 22.6791 25.6406 22.8811 25.2059H17.2435C17.0568 24.8016 16.8705 24.3973 16.7251 23.9723H23.3782C23.5231 23.568 23.627 23.1437 23.7302 22.7186C23.8131 22.3143 23.8961 21.89 23.9375 21.465C23.9796 21.0551 24.0004 20.6434 24 20.2314C24 19.8076 23.9793 19.383 23.9378 18.9787Z" fill="#CC2131"/>
<path fill-rule="evenodd" clip-rule="evenodd" d="M38.2227 23.1112C38.2227 22.854 38.415 22.667 38.6552 22.667C38.9195 22.667 39.1115 22.8542 39.1115 23.1112C39.1115 23.3452 38.9192 23.5559 38.6552 23.5559C38.415 23.5559 38.2227 23.3449 38.2227 23.1112ZM38.6552 23.4386C38.8476 23.4386 39.0154 23.2981 39.0154 23.1112C39.0154 22.9242 38.8473 22.7837 38.6552 22.7837C38.4866 22.7837 38.3188 22.9242 38.3188 23.1112C38.3188 23.2981 38.4869 23.4386 38.6552 23.4386ZM38.6071 23.2981H38.5109V22.9239H38.7752C38.8233 22.9476 38.8233 22.9944 38.8233 23.0412C38.8233 23.0643 38.7995 23.1112 38.7514 23.1348L38.8476 23.2984H38.7271L38.679 23.158H38.6071V23.2981V23.0878H38.6552C38.679 23.0878 38.7033 23.0878 38.7033 23.0641C38.7271 23.0641 38.7271 23.0409 38.7271 23.0173C38.7271 23.0173 38.7271 22.9941 38.7033 22.9941C38.7033 22.9704 38.679 22.9941 38.6552 22.9941H38.6071V23.2981Z" fill="white"/>
<path fill-rule="evenodd" clip-rule="evenodd" d="M15.9058 23.8259C15.5172 23.9342 15.2307 23.9997 14.9444 23.9997C14.3307 23.9997 13.9623 23.5869 13.9623 22.8486C13.9623 22.6968 13.9828 22.5447 14.0033 22.371L14.0851 21.8718L14.1465 21.4591L14.6988 17.8981H15.9262L15.783 18.6798H16.5604L16.3762 19.9827H15.5988L15.2716 22.1105C15.2511 22.2194 15.2511 22.2843 15.2511 22.3278C15.2511 22.6102 15.3739 22.7185 15.6807 22.7185C15.8239 22.7185 15.9465 22.6971 16.0692 22.6751L15.9058 23.8259ZM19.8745 23.7824C19.4245 23.9128 19.0155 23.9777 18.5652 23.9777C17.1741 23.9777 16.3762 23.1959 16.3762 21.6546C16.3762 19.8521 17.3174 18.5492 18.6264 18.5492C19.6696 18.5492 20.3447 19.2876 20.3447 20.4381C20.3447 20.8294 20.3038 21.1984 20.2017 21.7195H17.6446C17.6241 21.8064 17.6241 21.8499 17.6241 21.8933C17.6241 22.5013 18.0127 22.8052 18.7492 22.8052C19.2196 22.8052 19.6287 22.6968 20.0789 22.4798L19.8745 23.7824ZM19.1175 20.6773V20.4167C19.1175 19.9824 18.8924 19.7435 18.5038 19.7435C18.0945 19.7435 17.8083 20.0691 17.6855 20.6771H19.1175V20.6773ZM6.08652 23.8908H4.81818L5.55467 18.962L3.89775 23.8908H3.01824L2.91592 18.9837L2.1385 23.8908H0.890625L1.89292 17.4853H3.75449L3.79542 21.4376L5.04329 17.4853H7.08905L6.08652 23.8908ZM9.17574 21.5677C9.05295 21.5457 9.01202 21.5457 8.93016 21.5457C8.19367 21.5457 7.82554 21.8496 7.82554 22.3275C7.82554 22.6534 8.00973 22.8706 8.29599 22.8706C8.9097 22.8706 9.15504 22.3275 9.17574 21.5677ZM10.1985 23.8908H9.09388L9.11434 23.3482C8.82784 23.7605 8.43925 23.9777 7.76415 23.9777C7.15045 23.9777 6.6186 23.3917 6.6186 22.5447C6.6186 22.306 6.65953 22.0891 6.72093 21.8718C6.92533 21.0681 7.68229 20.569 8.8483 20.547C8.99156 20.547 9.21643 20.547 9.42108 20.569C9.46177 20.3952 9.46177 20.3298 9.46177 20.2214C9.46177 19.8738 9.19596 19.7652 8.60272 19.7652C8.2346 19.7652 7.8253 19.8304 7.53904 19.939L7.35485 19.9824L7.27299 20.0039L7.45718 18.8314C8.05042 18.6359 8.47994 18.5492 8.95063 18.5492C10.0552 18.5492 10.6485 19.0921 10.6485 20.0908C10.6485 20.3515 10.6689 20.547 10.5871 21.1115L10.3008 22.9789L10.2599 23.3048L10.2394 23.5655L10.219 23.7393L10.1985 23.8908ZM26.0525 18.723C26.4206 18.723 26.748 18.8316 27.198 19.0703L27.4229 17.6806C27.3001 17.6154 27.2592 17.6154 27.0957 17.5502L26.5845 17.3982C26.4208 17.3547 26.2164 17.333 25.9911 17.333C25.3567 17.333 24.9885 17.3547 24.6002 17.5937C24.3955 17.7457 24.1295 17.9413 23.843 18.2886L23.6793 18.2451L22.37 19.2221L22.4316 18.6793H21.0812L20.2838 23.8905H21.5728L22.043 21.0898C22.043 21.0898 22.2275 20.6985 22.3091 20.5687C22.5547 20.2429 22.7591 20.2429 23.0249 20.2429H23.1274C23.0845 20.5738 23.0639 20.9076 23.0658 21.2416C23.0658 22.9352 23.9658 23.9994 25.3569 23.9994C25.7048 23.9994 26.012 23.956 26.4822 23.8256L26.7076 22.3492C26.2985 22.5879 25.9302 22.6965 25.6232 22.6965C24.8665 22.6965 24.416 22.0886 24.416 21.1333C24.4155 19.7218 25.0909 18.723 26.0525 18.723ZM36.9145 17.4853L36.6284 19.3093C36.3215 18.8099 35.9531 18.571 35.4622 18.571C34.7868 18.571 34.1529 18.9834 33.7641 19.7652V19.7438L32.946 19.2224L33.0278 18.6796H31.6572L30.8797 23.8908H32.1481L32.5778 21.0901C32.5778 21.0901 32.905 20.6988 32.9869 20.569C33.1915 20.3083 33.396 20.2646 33.5597 20.2431C33.4167 20.6773 33.3348 21.1984 33.3348 21.7849C33.3348 23.0878 33.9687 23.9562 34.9096 23.9562C35.3803 23.9562 35.7484 23.7824 36.0961 23.3697L36.0349 23.8908H37.2421L38.224 17.4853H36.9145ZM35.3396 22.6534C34.9099 22.6534 34.685 22.306 34.685 21.6326C34.685 20.6119 35.0941 19.8738 35.687 19.8738C36.137 19.8738 36.3624 20.2431 36.3624 20.8946C36.3624 21.9368 35.9533 22.6534 35.3396 22.6534ZM29.4279 21.5677C29.3052 21.5457 29.2642 21.5457 29.1824 21.5457C28.4454 21.5457 28.0773 21.8496 28.0773 22.3275C28.0773 22.6534 28.2617 22.8706 28.548 22.8706C29.1617 22.8706 29.4072 22.3275 29.4279 21.5677ZM30.4507 23.8908H29.3254L29.3663 23.3482C29.08 23.7605 28.691 23.9777 28.0164 23.9777C27.3819 23.9777 26.8299 23.4132 26.8299 22.5447C26.8299 21.3073 27.7091 20.5472 29.1003 20.5472C29.2438 20.5472 29.4684 20.5472 29.6528 20.5692C29.6937 20.3954 29.7145 20.33 29.7145 20.2217C29.7145 19.8741 29.4484 19.7655 28.8347 19.7655C28.4868 19.7655 28.0573 19.8306 27.771 19.9393L27.6073 19.9827L27.5254 20.0042L27.7094 18.8316C28.3029 18.6361 28.7326 18.5495 29.2028 18.5495C30.3075 18.5495 30.8802 19.0923 30.8802 20.0911C30.8802 20.3517 30.9212 20.5472 30.8191 21.1118L30.553 22.9792L30.5121 23.305L30.4712 23.5657L30.4509 23.7395V23.8908H30.4507ZM12.8782 19.7869C13.1238 19.7869 13.4714 19.8087 13.8398 19.8738L14.024 18.6579C13.6556 18.6144 13.1647 18.5492 12.8782 18.5492C11.4464 18.5492 10.9759 19.3745 10.9759 20.3298C10.9759 20.9597 11.2417 21.4154 11.9373 21.7627C12.4487 22.0234 12.5305 22.0666 12.5305 22.3058C12.5305 22.6311 12.2647 22.8269 11.7736 22.8269C11.385 22.8269 11.0166 22.7615 10.6076 22.6097L10.4643 23.8037L10.4845 23.8256L10.7301 23.8691C10.812 23.8905 10.9143 23.9125 11.0575 23.934C11.3643 23.956 11.6303 23.9774 11.794 23.9774C13.2261 23.9774 13.8193 23.3914 13.8193 22.2404C13.8193 21.524 13.4919 21.0898 12.8577 20.7859C12.3054 20.525 12.244 20.4821 12.244 20.2429C12.244 20.0042 12.4896 19.7869 12.8782 19.7869Z" fill="#1B3771"/>
<path fill-rule="evenodd" clip-rule="evenodd" d="M27.867 17.2143L27.6413 18.6041C27.1905 18.3651 26.8626 18.2568 26.4938 18.2568C25.5306 18.2568 24.8547 19.2555 24.8547 20.6671C24.8547 21.6444 25.3054 22.2304 26.0638 22.2304C26.3708 22.2304 26.7398 22.1221 27.1495 21.9051L26.9243 23.3596C26.4528 23.4899 26.1456 23.5553 25.7971 23.5553C24.4039 23.5553 23.5432 22.4911 23.5432 20.776C23.5432 18.4957 24.7317 16.8887 26.4323 16.8887C26.6576 16.8887 26.8623 16.9104 27.0263 16.9538L27.5388 17.0842C27.703 17.1494 27.744 17.1711 27.867 17.2143ZM23.7277 18.1699H23.6047C23.1748 18.1699 22.9288 18.3871 22.5393 19.0166L22.6623 18.2131H21.4941L20.6954 23.4247H21.9866C22.4576 20.2326 22.5805 19.6898 23.1953 19.6898H23.2773C23.4002 19.06 23.564 18.6038 23.769 18.1913L23.7277 18.1699ZM16.3104 23.3596C15.9622 23.4899 15.6752 23.5334 15.3885 23.5334C14.7328 23.5334 14.3638 23.1426 14.3638 22.3828C14.3638 22.2524 14.3843 22.0789 14.4048 21.9266L14.4868 21.4054L14.5483 20.9932L15.1015 17.4315H16.3719L16.2284 18.2133H16.8841L16.7201 19.4945H16.0644L15.7162 21.6661C15.6957 21.753 15.6957 21.8185 15.6957 21.8834C15.6957 22.1441 15.8187 22.2527 16.1259 22.2527C16.2694 22.2527 16.3922 22.2527 16.4742 22.2092L16.3104 23.3596ZM11.3722 19.8636C11.3722 20.5153 11.6589 20.971 12.3351 21.3185C12.8679 21.5792 12.9499 21.6659 12.9499 21.8831C12.9499 22.209 12.7244 22.3608 12.2122 22.3608C11.8229 22.3608 11.4745 22.2959 11.0647 22.1655L10.8802 23.3596L10.9417 23.3815L11.1672 23.425C11.249 23.4465 11.3517 23.4684 11.5154 23.4684C11.8022 23.5119 12.0482 23.5119 12.2122 23.5119C13.5643 23.5119 14.1998 22.9688 14.1998 21.7747C14.1998 21.0579 13.9335 20.6451 13.2983 20.3198C12.7451 20.0591 12.6836 19.9942 12.6836 19.7552C12.6836 19.473 12.9091 19.3427 13.3188 19.3427C13.5648 19.3427 13.9131 19.3644 14.241 19.4079L14.4253 18.2136C14.0975 18.1484 13.5853 18.105 13.2983 18.105C11.8639 18.1047 11.3517 18.9082 11.3722 19.8636ZM37.6819 23.425H36.4727L36.5345 22.9253C36.186 23.3161 35.817 23.4899 35.3456 23.4899C34.4031 23.4899 33.7884 22.6434 33.7884 21.3405C33.7884 19.6031 34.7516 18.1264 35.8783 18.1264C36.3908 18.1264 36.7595 18.3654 37.1082 18.8431L37.3949 17.019H38.6654L37.6819 23.425ZM35.7965 22.209C36.391 22.209 36.8007 21.4706 36.8007 20.4498C36.8007 19.7767 36.575 19.4291 36.1243 19.4291C35.5506 19.4291 35.1206 20.1457 35.1206 21.1665C35.1206 21.8616 35.3458 22.209 35.7965 22.209ZM20.2444 23.3161C19.7935 23.4684 19.3837 23.5334 18.9125 23.5334C17.4781 23.5334 16.7404 22.7301 16.7404 21.1882C16.7404 19.4076 17.6831 18.083 18.974 18.083C20.0395 18.083 20.7154 18.8213 20.7154 19.9722C20.7154 20.3632 20.6744 20.7325 20.5514 21.2751H18.0111C17.9906 21.3405 17.9906 21.384 17.9906 21.4274C17.9906 22.0354 18.38 22.3393 19.1175 22.3393C19.5887 22.3393 19.9985 22.2524 20.4494 22.0135L20.2444 23.3161ZM19.5272 20.2109V19.9505C19.5272 19.5162 19.3017 19.2773 18.9125 19.2773C18.5028 19.2773 18.2158 19.6031 18.0928 20.2109H19.5272ZM6.47499 23.425H5.20456L5.94227 18.4955L4.28261 23.425H3.40142L3.29892 18.5389L2.52046 23.425H1.33203L2.33598 17.019H4.18012L4.24161 20.9929L5.4708 17.019H7.47893L6.47499 23.425ZM9.65105 21.1013C9.52806 21.1013 9.46656 21.0798 9.36407 21.0798C8.64686 21.0798 8.27813 21.362 8.27813 21.8831C8.27813 22.209 8.44212 22.4042 8.72886 22.4042C9.26158 22.4042 9.63055 21.8831 9.65105 21.1013ZM10.5935 23.425H9.52782L9.54832 22.8819C9.22034 23.3161 8.79011 23.5119 8.1959 23.5119C7.49919 23.5119 7.02796 22.9473 7.02796 22.1004C7.02796 20.8194 7.84742 20.0811 9.28184 20.0811C9.42532 20.0811 9.60981 20.1028 9.81456 20.1242C9.85555 19.9507 9.85555 19.8855 9.85555 19.7986C9.85555 19.4513 9.63007 19.321 9.03585 19.321C8.66712 19.321 8.25715 19.3644 7.97041 19.4513L7.78593 19.5165L7.66293 19.5382L7.84742 18.3656C8.48264 18.1701 8.91286 18.105 9.38433 18.105C10.4908 18.105 11.085 18.6261 11.085 19.6249C11.085 19.8855 11.0645 20.0811 10.9825 20.6673L10.6955 22.5134L10.6545 22.8387L10.634 23.0994L10.6135 23.2952L10.5935 23.425ZM29.9366 21.1013C29.7929 21.1013 29.7316 21.0798 29.6499 21.0798C28.9122 21.0798 28.543 21.362 28.543 21.8831C28.543 22.209 28.7277 22.4042 29.0144 22.4042C29.5269 22.4042 29.9159 21.8831 29.9366 21.1013ZM30.8791 23.425H29.8136L29.8339 22.8819C29.5061 23.3161 29.0759 23.5119 28.4817 23.5119C27.785 23.5119 27.3135 22.9473 27.3135 22.1004C27.3135 20.8194 28.133 20.0811 29.5674 20.0811C29.7111 20.0811 29.8956 20.1028 30.0799 20.1242C30.1209 19.9507 30.1416 19.8855 30.1416 19.7986C30.1416 19.4513 29.9159 19.321 29.3221 19.321C28.9529 19.321 28.5229 19.3644 28.236 19.4513L28.072 19.5165L27.949 19.5382L28.1332 18.3656C28.7687 18.1701 29.1987 18.105 29.6701 18.105C30.7766 18.105 31.3503 18.6261 31.3503 19.6249C31.3503 19.8855 31.3503 20.0811 31.248 20.6673L30.9816 22.5134L30.9406 22.8387L30.8996 23.0994L30.8793 23.2952V23.425H30.8791ZM34.3214 18.1699H34.1984C33.7684 18.1699 33.5224 18.3871 33.1329 19.0166L33.2559 18.2131H32.0878L31.309 23.4247H32.5795C33.0509 20.2326 33.1739 19.6898 33.7886 19.6898H33.8706C33.9936 19.06 34.1574 18.6038 34.3624 18.1913L34.3214 18.1699Z" fill="white"/>
</svg>
