<svg width="24" height="24" viewBox="0 0 24 24" fill="none" xmlns="http://www.w3.org/2000/svg">
<path d="M10.8712 3.14669L10.6797 2.42157V2.42157L10.8712 3.14669ZM13.1312 3.14669L12.9397 3.87181V3.87181L13.1312 3.14669ZM11.0628 3.87181C11.6775 3.7094 12.325 3.7094 12.9397 3.87181L13.3228 2.42157C12.457 2.19281 11.5455 2.19281 10.6797 2.42157L11.0628 3.87181ZM16.9283 7.06315C16.9283 4.88128 15.4432 2.98176 13.3228 2.42157L12.9397 3.87181C14.4138 4.26128 15.4283 5.57456 15.4283 7.06315H16.9283ZM8.57422 7.06315C8.57422 5.57455 9.58867 4.26128 11.0628 3.87181L10.6797 2.42157C8.55933 2.98176 7.07422 4.88127 7.07422 7.06315H8.57422Z" fill="#046C62"/>
<path d="M3.3835 16.4028L4.10471 16.1969L3.3835 16.4028ZM3.37998 10.9358L4.10118 11.1416L3.37998 10.9358ZM20.62 10.9358L19.8988 11.1416V11.1416L20.62 10.9358ZM20.6165 16.4028L21.3377 16.6086L20.6165 16.4028ZM15.9929 20.6184L15.8509 19.882L15.9929 20.6184ZM8.00711 20.6184L8.1491 19.882L8.00711 20.6184ZM8.77297 6.56014L8.91496 7.29657L8.77297 6.56014ZM15.227 6.56014L15.369 5.8237L15.227 6.56014ZM16.3006 6.76713L16.1586 7.50356L16.3006 6.76713ZM20.527 10.6099L21.2482 10.4041V10.4041L20.527 10.6099ZM7.69941 6.76713L7.55742 6.03069V6.03069L7.69941 6.76713ZM3.47297 10.6099L2.75176 10.4041H2.75176L3.47297 10.6099ZM7.8414 7.50356L8.91496 7.29657L8.63098 5.8237L7.55742 6.03069L7.8414 7.50356ZM15.085 7.29657L16.1586 7.50356L16.4426 6.03069L15.369 5.8237L15.085 7.29657ZM19.8058 10.8157L19.8988 11.1416L21.3412 10.73L21.2482 10.4041L19.8058 10.8157ZM4.10118 11.1416L4.19418 10.8157L2.75176 10.4041L2.65877 10.73L4.10118 11.1416ZM4.10471 16.1969C3.63385 14.547 3.63087 12.7897 4.10118 11.1416L2.65877 10.73C2.11113 12.649 2.1152 14.6915 2.66229 16.6086L4.10471 16.1969ZM19.8988 11.1416C20.3691 12.7897 20.3662 14.547 19.8953 16.1969L21.3377 16.6086C21.8848 14.6915 21.8889 12.649 21.3412 10.73L19.8988 11.1416ZM15.8509 19.882C13.3077 20.3723 10.6923 20.3723 8.1491 19.882L7.86512 21.3548C10.5959 21.8814 13.4041 21.8814 16.1349 21.3548L15.8509 19.882ZM8.91496 7.29657C10.9524 6.90375 13.0477 6.90375 15.085 7.29657L15.369 5.8237C13.144 5.3947 10.856 5.3947 8.63098 5.8237L8.91496 7.29657ZM8.1491 19.882C6.20493 19.5071 4.63939 18.0706 4.10471 16.1969L2.66229 16.6086C3.3533 19.03 5.36966 20.8737 7.86512 21.3548L8.1491 19.882ZM16.1349 21.3548C18.6303 20.8737 20.6467 19.03 21.3377 16.6086L19.8953 16.1969C19.3606 18.0706 17.7951 19.5071 15.8509 19.882L16.1349 21.3548ZM16.1586 7.50356C17.9164 7.84248 19.3239 9.1269 19.8058 10.8157L21.2482 10.4041C20.6087 8.16298 18.747 6.47501 16.4426 6.03069L16.1586 7.50356ZM7.55742 6.03069C5.25297 6.47501 3.39132 8.16298 2.75176 10.4041L4.19418 10.8157C4.67613 9.1269 6.08361 7.84248 7.8414 7.50356L7.55742 6.03069ZM3.38575 11.7915C8.93989 13.8459 15.0601 13.8459 20.6143 11.7915L20.0939 10.3846C14.8755 12.3148 9.12447 12.3148 3.90612 10.3846L3.38575 11.7915Z" fill="black"/>
<path d="M8 10.5V14" stroke="#046C62" stroke-width="1.5" stroke-linecap="round"/>
<path d="M16 10.5V14" stroke="#046C62" stroke-width="1.5" stroke-linecap="round"/>
</svg>
