<svg width="24" height="24" viewBox="0 0 24 24" fill="none" xmlns="http://www.w3.org/2000/svg">
<path d="M19.25 11.1755C19.25 13.2512 18.4198 15.55 17.0613 17.3251C15.6992 19.1049 13.8965 20.25 12 20.25V21.75C14.5218 21.75 16.7191 20.2404 18.2525 18.2367C19.7894 16.2285 20.75 13.615 20.75 11.1755H19.25ZM12 20.25C10.1035 20.25 8.30078 19.1049 6.93875 17.3251C5.58023 15.55 4.75 13.2512 4.75 11.1755H3.25C3.25 13.615 4.21063 16.2285 5.74754 18.2367C7.28094 20.2404 9.47822 21.75 12 21.75V20.25ZM4.75 11.1755C4.75 7.05908 8.01119 3.75 12 3.75V2.25C7.15225 2.25 3.25 6.2615 3.25 11.1755H4.75ZM12 3.75C15.9888 3.75 19.25 7.05908 19.25 11.1755H20.75C20.75 6.2615 16.8477 2.25 12 2.25V3.75Z" fill="black"/>
<path d="M9.5 10.5C9.5 9.11929 10.6193 8 12 8C13.3807 8 14.5 9.11929 14.5 10.5C14.5 11.8807 13.3807 13 12 13C10.6193 13 9.5 11.8807 9.5 10.5Z" stroke="#046C62" stroke-width="1.5"/>
</svg>
