<svg width="20" height="20" viewBox="0 0 20 20" fill="none" xmlns="http://www.w3.org/2000/svg">
<path d="M6.53545 4.57449L7.21624 4.88917L6.53545 4.57449ZM7.34835 3.48427L6.84782 2.92572L6.84782 2.92572L7.34835 3.48427ZM8.56494 2.7558L8.82593 3.45893L8.56494 2.7558ZM11.4351 2.7558L11.6961 2.05268V2.05268L11.4351 2.7558ZM13.4645 4.57449L14.1453 4.25981V4.25981L13.4645 4.57449ZM7 5.86049C7 5.52983 7.07255 5.20005 7.21624 4.88917L5.85466 4.25981C5.62145 4.76435 5.5 5.30854 5.5 5.86049H7ZM7.21624 4.88917C7.36008 4.57797 7.57354 4.28955 7.84888 4.04281L6.84782 2.92572C6.42672 3.30308 6.08773 3.75558 5.85466 4.25981L7.21624 4.88917ZM7.84888 4.04281C8.12438 3.79593 8.45577 3.59633 8.82593 3.45893L8.30395 2.05268C7.76417 2.25304 7.26876 2.5485 6.84782 2.92572L7.84888 4.04281ZM8.82593 3.45893C9.19613 3.32151 9.59529 3.25 10 3.25V1.75C9.41979 1.75 8.84369 1.85233 8.30394 2.05268L8.82593 3.45893ZM10 3.25C10.4047 3.25 10.8039 3.32151 11.1741 3.45893L11.6961 2.05268C11.1563 1.85233 10.5802 1.75 10 1.75V3.25ZM11.1741 3.45893C11.5442 3.59633 11.8756 3.79593 12.1511 4.04281L13.1522 2.92572C12.7312 2.5485 12.2358 2.25304 11.6961 2.05268L11.1741 3.45893ZM12.1511 4.04281C12.4265 4.28955 12.6399 4.57798 12.7838 4.88917L14.1453 4.25981C13.9123 3.75558 13.5733 3.30308 13.1522 2.92572L12.1511 4.04281ZM12.7838 4.88917C12.9275 5.20005 13 5.52983 13 5.8605H14.5C14.5 5.30854 14.3786 4.76435 14.1453 4.25981L12.7838 4.88917Z" fill="#7C7C7C"/>
<path d="M2.5 5.11035C2.08579 5.11035 1.75 5.44614 1.75 5.86035C1.75 6.27457 2.08579 6.61035 2.5 6.61035V5.11035ZM17.5 6.61035C17.9142 6.61035 18.25 6.27457 18.25 5.86035C18.25 5.44614 17.9142 5.11035 17.5 5.11035V6.61035ZM4.16667 5.86035V5.11035H3.41667V5.86035H4.16667ZM15.8333 5.86035H16.5833V5.11035H15.8333V5.86035ZM15.2849 14.0251L16.0054 14.2331L15.2849 14.0251ZM11.4366 17.3793L11.5616 18.1188L11.4366 17.3793ZM8.56334 17.3793L8.68831 16.6398L8.6883 16.6398L8.56334 17.3793ZM8.43189 17.3571L8.30692 18.0966H8.30693L8.43189 17.3571ZM4.71512 14.0251L3.99455 14.2331L4.71512 14.0251ZM11.5681 17.3571L11.4431 16.6176L11.5681 17.3571ZM2.5 6.61035H17.5V5.11035H2.5V6.61035ZM11.4431 16.6176L11.3117 16.6398L11.5616 18.1188L11.6931 18.0966L11.4431 16.6176ZM8.6883 16.6398L8.55685 16.6176L8.30693 18.0966L8.43838 18.1188L8.6883 16.6398ZM15.0833 5.86035V10.1464H16.5833V5.86035H15.0833ZM4.91667 10.1464V5.86035H3.41667V10.1464H4.91667ZM15.0833 10.1464C15.0833 11.3886 14.9086 12.6245 14.5643 13.8171L16.0054 14.2331C16.3888 12.9052 16.5833 11.5293 16.5833 10.1464H15.0833ZM11.3117 16.6398C10.4433 16.7865 9.55671 16.7865 8.68831 16.6398L8.43837 18.1188C9.47223 18.2935 10.5277 18.2935 11.5616 18.1188L11.3117 16.6398ZM8.55686 16.6176C7.07299 16.3668 5.85821 15.2807 5.4357 13.8171L3.99455 14.2331C4.57541 16.2453 6.24942 17.7489 8.30692 18.0966L8.55686 16.6176ZM5.4357 13.8171C5.09143 12.6245 4.91667 11.3886 4.91667 10.1464H3.41667C3.41667 11.5293 3.61122 12.9052 3.99455 14.2331L5.4357 13.8171ZM11.6931 18.0966C13.7506 17.7489 15.4246 16.2453 16.0054 14.2331L14.5643 13.8171C14.1418 15.2807 12.927 16.3668 11.4431 16.6176L11.6931 18.0966ZM4.16667 6.61035H15.8333V5.11035H4.16667V6.61035Z" fill="#7C7C7C"/>
<path d="M9.08203 10C9.08203 9.58579 8.74624 9.25 8.33203 9.25C7.91782 9.25 7.58203 9.58579 7.58203 10H9.08203ZM7.58203 13.3333C7.58203 13.7475 7.91782 14.0833 8.33203 14.0833C8.74624 14.0833 9.08203 13.7475 9.08203 13.3333H7.58203ZM12.4154 10C12.4154 9.58579 12.0796 9.25 11.6654 9.25C11.2512 9.25 10.9154 9.58579 10.9154 10H12.4154ZM10.9154 13.3333C10.9154 13.7475 11.2512 14.0833 11.6654 14.0833C12.0796 14.0833 12.4154 13.7475 12.4154 13.3333H10.9154ZM7.58203 10V13.3333H9.08203V10H7.58203ZM10.9154 10V13.3333H12.4154V10H10.9154Z" fill="#7C7C7C"/>
</svg>
