<svg width="18" height="18" viewBox="0 0 18 18" fill="none" xmlns="http://www.w3.org/2000/svg">
<path d="M4.30404 12C4.38654 11.6325 4.23654 11.1075 3.97404 10.845L2.15154 9.0225C1.58154 8.4525 1.35654 7.845 1.52154 7.32C1.69404 6.795 2.22654 6.435 3.02154 6.3L5.36154 5.91C5.69904 5.85 6.11154 5.55 6.26904 5.2425L7.55904 2.655C7.93404 1.9125 8.44404 1.5 8.99904 1.5C9.55404 1.5 10.064 1.9125 10.439 2.655L11.729 5.2425C11.8265 5.4375 12.029 5.625 12.2465 5.7525L4.16904 13.83C4.06404 13.935 3.88404 13.8375 3.91404 13.6875L4.30404 12Z" fill="#FFC32A"/>
<path opacity="0.3" d="M14.0266 10.8454C13.7566 11.1154 13.6066 11.6329 13.6966 12.0004L14.2141 14.2579C14.4316 15.1954 14.2966 15.9004 13.8316 16.2379C13.6441 16.3729 13.4191 16.4404 13.1566 16.4404C12.7741 16.4404 12.3241 16.2979 11.8291 16.0054L9.63156 14.7004C9.28656 14.4979 8.71656 14.4979 8.37156 14.7004L6.17406 16.0054C5.34156 16.4929 4.62906 16.5754 4.17156 16.2379C3.99906 16.1104 3.87156 15.9379 3.78906 15.7129L12.9091 6.59291C13.2541 6.24791 13.7416 6.09041 14.2141 6.17291L14.9716 6.30041C15.7666 6.43541 16.2991 6.79541 16.4716 7.32041C16.6366 7.84541 16.4116 8.45291 15.8416 9.02291L14.0266 10.8454Z" fill="#FFC32A"/>
</svg>
