<svg width="160" height="168" viewBox="0 0 160 168" fill="none" xmlns="http://www.w3.org/2000/svg">
<circle cx="63" cy="63" r="63" fill="#E6F0F0"/>
<g clip-path="url(#clip0_3696_4921)">
<path d="M147.301 47.7345C133.825 34.2591 111.977 34.2591 98.5019 47.7345L93.4947 52.7418L88.4874 47.7345C75.0119 34.2591 53.1639 34.2591 39.6886 47.7345C26.2132 61.21 26.2132 83.0581 39.6886 96.5333L82.3957 139.24C88.5256 145.37 98.4643 145.37 104.594 139.24L147.301 96.5333C160.776 83.0578 160.776 61.21 147.301 47.7345Z" fill="#B3E2DE"/>
<path d="M100.569 128.612V103.236C100.569 100.117 103.098 97.5882 106.217 97.5882C109.337 97.5882 111.865 100.117 111.865 103.236V123.785V132.362L118.822 125.136C121.665 122.183 126.385 122.15 129.269 125.07C131.744 127.576 132.002 131.529 130.015 134.438L117.108 153.332C111.961 160.867 103.425 165.373 94.3007 165.373C79.046 165.373 66.6797 153.007 66.6797 137.752V113.793V133.419V113.793V112.18C66.6797 109.06 69.2084 106.531 72.3279 106.531C75.4474 106.531 77.9761 109.06 77.9761 112.18V128.613V103.237C77.9761 100.117 80.5049 97.5885 83.6244 97.5885C86.7439 97.5885 89.2726 100.117 89.2726 103.237V128.613V124.692V96.3806C89.2726 93.2611 91.8013 90.7324 94.9208 90.7324C98.0404 90.7324 100.569 93.2611 100.569 96.3806V124.672V128.612H100.569Z" fill="#FFD0C7"/>
<path d="M156.4 56.1587C155.782 54.8636 154.233 54.3143 152.936 54.9319C151.641 55.5495 151.092 57.1003 151.71 58.3954C157.514 70.5672 155.003 85.1554 145.462 94.6958L114.463 125.696V103.236C114.463 98.6896 110.764 94.9902 106.217 94.9902C105.125 94.9902 104.083 95.2056 103.128 95.5927C102.73 91.4142 99.2013 88.1344 94.9199 88.1344C90.6388 88.1344 87.1106 91.4139 86.7123 95.5927C85.7575 95.2056 84.7154 94.9902 83.6234 94.9902C79.0765 94.9902 75.3771 98.6896 75.3771 103.236V104.52C74.433 104.143 73.4044 103.933 72.327 103.933C67.7801 103.933 64.0807 107.632 64.0807 112.179V117.252L41.5241 94.6958C29.0832 82.2546 29.0832 62.0119 41.5241 49.571C47.5506 43.5445 55.5634 40.2255 64.0864 40.2255C72.6094 40.2255 80.6221 43.5445 86.6487 49.5713L91.6559 54.5786C92.6707 55.5934 94.3156 55.5931 95.3301 54.5786L100.337 49.5713C109.879 40.0298 124.467 37.5198 136.639 43.3247C137.934 43.9418 139.485 43.3933 140.103 42.0982C140.72 40.803 140.171 39.2522 138.876 38.6347C124.722 31.8843 107.758 34.8027 96.6637 45.8968L93.4936 49.067L90.3234 45.8968C83.3153 38.889 73.9978 35.0293 64.0869 35.0293C54.176 35.0293 44.8582 38.889 37.8502 45.8968C23.3833 60.3637 23.3833 83.9031 37.8502 98.37L64.0809 124.601V137.752C64.0809 154.415 77.6372 167.971 94.3 167.971C104.29 167.971 113.618 163.046 119.253 154.798L132.16 135.904C134.875 131.929 134.436 126.605 131.116 123.244C129.904 122.016 128.43 121.149 126.819 120.687L149.137 98.37C160.23 87.2765 163.149 70.3131 156.4 56.1587ZM127.869 132.973L114.962 151.867C110.296 158.697 102.572 162.775 94.3003 162.775C80.5026 162.775 69.2774 151.55 69.2774 137.752V112.18C69.2774 110.498 70.6458 109.129 72.3275 109.129C74.0092 109.129 75.3777 110.498 75.3777 112.18V128.613C75.3777 130.048 76.5408 131.211 77.9757 131.211C79.4107 131.211 80.5738 130.048 80.5738 128.613V103.237C80.5738 101.555 81.9422 100.187 83.624 100.187C85.306 100.187 86.6741 101.555 86.6741 103.237V128.613C86.6741 130.048 87.8373 131.211 89.2722 131.211C90.7071 131.211 91.8703 130.048 91.8703 128.613V96.3807C91.8703 94.6989 93.2384 93.3305 94.9202 93.3305C96.6022 93.3305 97.9703 94.6989 97.9703 96.3807V128.613C97.9703 130.048 99.1337 131.211 100.568 131.211C102.003 131.211 103.166 130.048 103.166 128.613V103.237C103.166 101.555 104.535 100.187 106.217 100.187C107.898 100.187 109.267 101.555 109.267 103.237V132.362C109.267 133.422 109.91 134.376 110.893 134.772C111.875 135.167 113.001 134.928 113.736 134.164L120.693 126.939C121.579 126.018 122.77 125.507 124.047 125.499C125.315 125.491 126.522 125.987 127.42 126.896C128.996 128.491 129.185 131.047 127.869 132.973Z" fill="black"/>
<path d="M110.76 72.6114L104.148 79.224C103.133 80.2386 103.133 81.8837 104.148 82.8982C104.655 83.4056 105.32 83.6592 105.985 83.6592C106.65 83.6592 107.314 83.4054 107.822 82.8982L114.434 76.2856C115.449 75.271 115.449 73.6259 114.434 72.6114C113.42 71.5971 111.775 71.5969 110.76 72.6114Z" fill="black"/>
<path d="M75.2493 72.6114C74.2347 73.6259 74.2345 75.271 75.2493 76.2856L81.8617 82.8982C82.3691 83.4056 83.0339 83.6592 83.6988 83.6592C84.3636 83.6592 85.0287 83.4054 85.5359 82.8982C86.5504 81.8837 86.5507 80.2386 85.5359 79.224L78.9235 72.6114C77.9089 71.5969 76.2638 71.5971 75.2493 72.6114Z" fill="black"/>
<path d="M92.2422 65.3647V77.9521C92.2422 79.3871 93.4054 80.5502 94.8403 80.5502C96.2749 80.5502 97.4384 79.3871 97.4384 77.9521V65.3647C97.4384 63.9298 96.2749 62.7666 94.8403 62.7666C93.4054 62.7666 92.2422 63.9298 92.2422 65.3647Z" fill="black"/>
<path d="M147.301 50.3329C147.985 50.3329 148.655 50.0549 149.138 49.5716C149.621 49.0884 149.899 48.4181 149.899 47.7348C149.899 47.0515 149.622 46.3812 149.138 45.898C148.655 45.4147 147.985 45.1367 147.301 45.1367C146.618 45.1367 145.948 45.4147 145.465 45.898C144.981 46.3812 144.703 47.0515 144.703 47.7348C144.703 48.4181 144.981 49.0884 145.465 49.5716C145.948 50.0546 146.618 50.3329 147.301 50.3329Z" fill="black"/>
</g>
<defs>
<clipPath id="clip0_3696_4921">
<rect width="133" height="133" fill="white" transform="translate(27 35)"/>
</clipPath>
</defs>
</svg>
