<svg width="20" height="20" viewBox="0 0 20 20" fill="none" xmlns="http://www.w3.org/2000/svg">
<path d="M9.9987 12.084L9.46837 12.6143C9.60902 12.755 9.79978 12.834 9.9987 12.834C10.1976 12.834 10.3884 12.755 10.529 12.6143L9.9987 12.084ZM6.36236 7.38699C6.06947 7.09409 5.59459 7.09409 5.3017 7.38699C5.00881 7.67988 5.00881 8.15475 5.3017 8.44765L6.36236 7.38699ZM12.082 10.0007L12.6124 10.531L12.6124 10.531L12.082 10.0007ZM14.6957 8.44765C14.9886 8.15475 14.9886 7.67988 14.6957 7.38699C14.4028 7.09409 13.9279 7.09409 13.635 7.38699L14.6957 8.44765ZM10.529 11.5537L6.36236 7.38699L5.3017 8.44765L9.46837 12.6143L10.529 11.5537ZM10.529 12.6143L12.6124 10.531L11.5517 9.47032L9.46837 11.5537L10.529 12.6143ZM12.6124 10.531L14.6957 8.44765L13.635 7.38699L11.5517 9.47032L12.6124 10.531Z" fill="#046C62"/>
<path d="M9.9987 12.084L9.46837 12.6143C9.60902 12.755 9.79979 12.834 9.9987 12.834C10.1976 12.834 10.3884 12.755 10.529 12.6143L9.9987 12.084ZM6.36236 7.38699C6.06947 7.09409 5.59459 7.09409 5.3017 7.38699C5.00881 7.67988 5.00881 8.15475 5.3017 8.44765L6.36236 7.38699ZM12.6124 10.531C12.9053 10.2381 12.9053 9.76321 12.6124 9.47032C12.3195 9.17743 11.8446 9.17743 11.5517 9.47032L12.6124 10.531ZM10.529 11.5537L6.36236 7.38699L5.3017 8.44765L9.46837 12.6143L10.529 11.5537ZM10.529 12.6143L12.6124 10.531L11.5517 9.47032L9.46837 11.5537L10.529 12.6143Z" fill="black"/>
</svg>
