<svg width="160" height="168" viewBox="0 0 160 168" fill="none" xmlns="http://www.w3.org/2000/svg">
<circle cx="63" cy="63" r="63" fill="#E6F0F0"/>
<path d="M48.6836 70.3281L60.3822 129.814H133.337L147.364 70.3281H48.6836Z" fill="#B3E2DE"/>
<path d="M157.402 63.3145C157.402 73.6442 149.029 82.0176 138.699 82.0176C128.369 82.0176 119.996 73.6442 119.996 63.3145C119.996 52.9847 128.369 44.6113 138.699 44.6113C149.029 44.6113 157.402 52.9847 157.402 63.3145Z" fill="#FFC0C0"/>
<path d="M59.8164 72.9258C60.5023 72.9258 61.17 72.6478 61.653 72.1647C62.1391 71.6817 62.4141 71.011 62.4141 70.3281C62.4141 69.6452 62.1391 68.9745 61.653 68.4915C61.17 68.0085 60.5023 67.7305 59.8164 67.7305C59.1335 67.7305 58.4638 68.0085 57.9808 68.4915C57.4968 68.9745 57.2188 69.6452 57.2188 70.3281C57.2188 71.011 57.4968 71.6817 57.9808 72.1647C58.4638 72.6478 59.1335 72.9258 59.8164 72.9258Z" fill="black"/>
<path d="M160 63.3145C160 51.5692 150.444 42.0137 138.699 42.0137C126.954 42.0137 117.398 51.5692 117.398 63.3145C117.398 64.8284 117.56 66.3048 117.861 67.7305H69.6016C68.1668 67.7305 67.0039 68.8933 67.0039 70.3281C67.0039 71.7629 68.1668 72.9258 69.6016 72.9258H119.7C123.219 79.8542 130.411 84.6152 138.699 84.6152C139.603 84.6152 140.491 84.5523 141.366 84.4427L134.25 114.618H104.28C102.845 114.618 101.683 115.781 101.683 117.216C101.683 118.651 102.845 119.813 104.28 119.813H133.025L131.28 127.217H62.5169L46.174 44.1101C45.9345 42.8924 44.866 42.0137 43.625 42.0137H29.5977C28.1629 42.0137 27 43.1765 27 44.6113C27 46.0461 28.1629 47.209 29.5977 47.209H41.488L57.8188 130.249C56.109 132.024 55.0547 134.434 55.0547 137.088C55.0547 142.531 59.4829 146.959 64.9258 146.959H71.7193C71.0323 148.282 70.6406 149.783 70.6406 151.375C70.6406 156.675 74.9521 160.986 80.252 160.986C85.5518 160.986 89.8633 156.675 89.8633 151.375C89.8633 149.783 89.4716 148.282 88.7846 146.959H120.815C120.128 148.282 119.736 149.783 119.736 151.375C119.736 156.675 124.048 160.986 129.348 160.986C134.647 160.986 138.959 156.675 138.959 151.375C138.959 149.783 138.568 148.282 137.88 146.959H147.364C148.798 146.959 149.961 145.796 149.961 144.361C149.961 142.927 148.798 141.764 147.364 141.764H64.9258C62.3474 141.764 60.25 139.666 60.25 137.088C60.25 134.51 62.3474 132.412 64.9258 132.412H143.375C144.81 132.412 145.973 131.249 145.973 129.814C145.973 128.38 144.81 127.217 143.375 127.217H136.617L147.068 82.9004C154.665 79.6421 160 72.0907 160 63.3145ZM84.668 151.375C84.668 153.81 82.6873 155.791 80.252 155.791C77.8167 155.791 75.8359 153.81 75.8359 151.375C75.8359 148.94 77.8167 146.959 80.252 146.959C82.6873 146.959 84.668 148.94 84.668 151.375ZM133.764 151.375C133.764 153.81 131.783 155.791 129.348 155.791C126.912 155.791 124.932 153.81 124.932 151.375C124.932 148.94 126.912 146.959 129.348 146.959C131.783 146.959 133.764 148.94 133.764 151.375ZM122.594 63.3145C122.594 54.4337 129.818 47.209 138.699 47.209C147.58 47.209 154.805 54.4337 154.805 63.3145C154.805 72.1952 147.58 79.4199 138.699 79.4199C129.818 79.4199 122.594 72.1952 122.594 63.3145Z" fill="black"/>
<path d="M94.6218 119.052C95.1048 118.569 95.3828 117.899 95.3828 117.216C95.3828 116.533 95.1048 115.862 94.6218 115.379C94.1388 114.896 93.4681 114.618 92.7852 114.618C92.1023 114.618 91.4315 114.896 90.9485 115.379C90.4655 115.862 90.1875 116.533 90.1875 117.216C90.1875 117.899 90.4655 118.569 90.9485 119.052C91.4315 119.535 92.1023 119.813 92.7852 119.813C93.4681 119.813 94.1388 119.535 94.6218 119.052Z" fill="black"/>
</svg>
