<svg width="147" height="168" viewBox="0 0 147 168" fill="none" xmlns="http://www.w3.org/2000/svg">
<circle cx="63" cy="63" r="63" fill="#E6F0F0"/>
<g clip-path="url(#clip0_3699_6689)">
<path d="M135.959 62.3984L44.7395 37.9563C39.1965 36.4709 33.4992 39.7605 32.0139 45.3033L16.9543 101.507C15.469 107.05 18.7586 112.747 24.3014 114.232L115.521 138.675C121.064 140.16 126.761 136.87 128.247 131.328L143.306 75.124C144.792 69.581 141.502 63.8837 135.959 62.3984Z" fill="#E2E9EE"/>
<path d="M31.0703 48.8203L142.371 78.6619L138.575 92.8225L27.2736 62.981L31.0703 48.8203Z" fill="#FFE485"/>
<path d="M134.008 86.4355H39.5701C33.8317 86.4355 29.1797 91.0876 29.1797 96.8259V155.012C29.1797 160.751 33.8317 165.403 39.5701 165.403H134.008C139.746 165.403 144.398 160.751 144.398 155.012V96.8259C144.398 91.0873 139.746 86.4355 134.008 86.4355Z" fill="#B3E2DE"/>
<path d="M42.5742 128.518H63.355V139.947H42.5742V128.518Z" fill="white"/>
<path d="M74.7852 128.518H97.6441V139.947H74.7852V128.518Z" fill="white"/>
<path d="M109.074 128.518H131.933V139.947H109.074V128.518Z" fill="white"/>
<path d="M41.6484 100.463H64.5073V115.009H41.6484V100.463Z" fill="#FFEC80"/>
<path d="M67.1049 115.009V100.463C67.1049 99.0282 65.9419 97.8652 64.5073 97.8652H41.6484C40.2137 97.8652 39.0508 99.0282 39.0508 100.463V115.009C39.0508 116.444 40.2137 117.607 41.6484 117.607H64.5073C65.9419 117.607 67.1049 116.444 67.1049 115.009ZM61.9097 112.412H44.246V103.06H61.9097V112.412Z" fill="black"/>
<path d="M65.9526 128.516C65.9526 127.081 64.7896 125.918 63.355 125.918H42.5742C41.1395 125.918 39.9766 127.081 39.9766 128.516V139.945C39.9766 141.38 41.1395 142.543 42.5742 142.543H63.355C64.7896 142.543 65.9526 141.38 65.9526 139.945V128.516ZM60.7574 137.347H45.1718V131.113H60.7574V137.347Z" fill="black"/>
<path d="M74.7812 142.543H97.64C99.0744 142.543 100.238 141.38 100.238 139.945V128.516C100.238 127.081 99.0744 125.918 97.64 125.918H74.7812C73.3465 125.918 72.1836 127.081 72.1836 128.516V139.945C72.1836 141.38 73.3465 142.543 74.7812 142.543ZM77.3788 131.113H95.0424V137.347H77.3788V131.113Z" fill="black"/>
<path d="M106.473 128.516V139.945C106.473 141.38 107.636 142.543 109.07 142.543H131.929C133.364 142.543 134.527 141.38 134.527 139.945V128.516C134.527 127.081 133.364 125.918 131.929 125.918H109.07C107.636 125.918 106.473 127.081 106.473 128.516ZM111.668 131.113H129.332V137.347H111.668V131.113Z" fill="black"/>
<path d="M131.96 97.8652H111.18C109.745 97.8652 108.582 99.0282 108.582 100.463C108.582 101.897 109.745 103.06 111.18 103.06H131.96C133.395 103.06 134.558 101.897 134.558 100.463C134.558 99.0282 133.395 97.8652 131.96 97.8652Z" fill="black"/>
<path d="M131.96 110.334H121.852C120.417 110.334 119.254 111.497 119.254 112.932C119.254 114.366 120.417 115.529 121.852 115.529H131.96C133.395 115.529 134.558 114.366 134.558 112.932C134.558 111.497 133.395 110.334 131.96 110.334Z" fill="black"/>
<path d="M63.355 148.777H42.5742C41.1395 148.777 39.9766 149.94 39.9766 151.375C39.9766 152.81 41.1395 153.973 42.5742 153.973H63.355C64.7896 153.973 65.9526 152.81 65.9526 151.375C65.9526 149.94 64.7896 148.777 63.355 148.777Z" fill="black"/>
<path d="M98.1596 151.375C98.1596 149.94 96.9964 148.777 95.562 148.777H74.7812C73.3465 148.777 72.1836 149.94 72.1836 151.375C72.1836 152.81 73.3465 153.973 74.7812 153.973H95.562C96.9967 153.973 98.1596 152.81 98.1596 151.375Z" fill="black"/>
<path d="M142.751 87.2297L145.814 75.7972C146.712 72.4463 146.251 68.946 144.517 65.9416C142.782 62.9372 139.981 60.788 136.63 59.8902L45.4106 35.4481C42.0599 34.5504 38.5597 35.0109 35.5553 36.7453C32.5509 38.48 30.4016 41.2808 29.5039 44.6317L14.4441 100.835C12.5904 107.753 16.7105 114.889 23.6279 116.743L26.5826 117.534V155.012C26.5826 162.174 32.4091 168 39.5706 168H75.1001C76.5348 168 77.6977 166.837 77.6977 165.402C77.6977 163.968 76.5348 162.805 75.1001 162.805H39.5706C35.2737 162.805 31.7778 159.309 31.7778 155.012V96.8258C31.7778 92.5288 35.2737 89.033 39.5706 89.033H134.008C138.305 89.033 141.801 92.5288 141.801 96.8258V155.012C141.801 159.309 138.305 162.805 134.008 162.805H98.4788C97.0444 162.805 95.8812 163.968 95.8812 165.402C95.8812 166.837 97.0444 168 98.4788 168H134.008C141.17 168 146.996 162.174 146.996 155.012V96.8258C146.996 93.0284 145.358 89.6068 142.751 87.2297ZM38.1529 41.2446C39.9554 40.2038 42.0555 39.9274 44.0661 40.4661L135.286 64.9083C137.296 65.447 138.977 66.7365 140.018 68.5392C141.058 70.3417 141.335 72.4418 140.796 74.4524L140.527 75.4561L34.2528 46.9801L34.5217 45.9767C35.0607 43.9659 36.3501 42.2855 38.1529 41.2446ZM26.5826 96.8258V112.156L24.9727 111.724C22.9618 111.186 21.2815 109.896 20.2409 108.093C19.2 106.291 18.9236 104.191 19.4624 102.18L29.1143 66.158L95.0959 83.8378H39.5706C32.4088 83.8378 26.5826 89.6642 26.5826 96.8258ZM115.168 83.8378L30.4588 61.1399L32.9083 51.9985L139.182 80.4744L138.103 84.503C136.814 84.0736 135.439 83.8378 134.008 83.8378H115.168Z" fill="black"/>
<path d="M86.7891 162.805C86.1059 162.805 85.4357 163.083 84.9525 163.566C84.4696 164.049 84.1914 164.719 84.1914 165.402C84.1914 166.086 84.4694 166.756 84.9525 167.239C85.4357 167.722 86.1059 168 86.7891 168C87.4722 168 88.1424 167.722 88.6256 167.239C89.1085 166.756 89.3867 166.086 89.3867 165.402C89.3867 164.719 89.1088 164.049 88.6256 163.566C88.1424 163.083 87.4722 162.805 86.7891 162.805Z" fill="black"/>
</g>
<defs>
<clipPath id="clip0_3699_6689">
<rect width="133" height="133" fill="white" transform="translate(14 35)"/>
</clipPath>
</defs>
</svg>
