<svg width="139" height="158" viewBox="0 0 139 158" fill="none" xmlns="http://www.w3.org/2000/svg">
<circle cx="76" cy="63" r="63" fill="#E6F0F0"/>
<g clip-path="url(#clip0_3647_3435)">
<path d="M79.4961 116.952L116.169 153.625C118.198 155.654 121.488 155.654 123.516 153.625L129.141 148.001C131.169 145.972 131.169 142.683 129.141 140.653L92.4682 103.98L79.4961 116.952Z" fill="#FFCE87"/>
<path d="M101.824 113.332L88.8516 126.304L79.5 116.952L92.4721 103.98L101.824 113.332Z" fill="#D8D8E4"/>
<path d="M100.53 76.1749C100.53 103.147 78.6646 125.012 51.6925 125.012C24.7205 125.012 2.85547 103.147 2.85547 76.1749C2.85547 49.2029 24.7205 27.3379 51.6925 27.3379C78.6646 27.3379 100.53 49.2029 100.53 76.1749Z" fill="#B3E2DE"/>
<path d="M85.9826 76.1749C85.9826 95.1125 70.63 110.465 51.6925 110.465C32.7549 110.465 17.4023 95.1125 17.4023 76.1749C17.4023 57.2373 32.7549 41.8848 51.6925 41.8848C70.63 41.8848 85.9826 57.2373 85.9826 76.1749Z" fill="white"/>
<path d="M29.1162 98.413C28.1096 97.3912 26.4637 97.379 25.4419 98.3866C24.4201 99.3932 24.4089 101.038 25.4155 102.06L25.6134 102.26C26.1207 102.766 26.7854 103.019 27.449 103.019C28.1146 103.019 28.7803 102.764 29.2876 102.256C30.3013 101.24 30.2993 99.5951 29.2836 98.5814L29.1162 98.413Z" fill="black"/>
<path d="M77.7794 50.0916C63.3969 35.7091 39.9957 35.7091 25.6131 50.0916C14.2768 61.4279 11.5442 78.6354 18.8136 92.9114C19.465 94.1899 21.0287 94.6983 22.3082 94.0479C23.5868 93.3964 24.0951 91.8328 23.4437 90.5542C17.1981 78.2894 19.5472 63.5051 29.2874 53.7648C41.6435 41.4087 61.75 41.4087 74.1062 53.7648C86.4633 66.122 86.4633 86.2275 74.1062 98.5846C64.7313 107.96 50.3569 110.508 38.3386 104.925C37.0378 104.32 35.4924 104.885 34.8886 106.186C34.2838 107.487 34.849 109.032 36.1499 109.636C41.0936 111.932 46.3772 113.047 51.6283 113.047C61.2346 113.046 70.7252 109.313 77.7805 102.258C92.162 87.8754 92.162 64.4741 77.7794 50.0916Z" fill="black"/>
<path d="M130.977 138.816L95.4073 103.246C100.297 95.3773 103.127 86.1009 103.127 76.1749C103.127 47.8138 80.0537 24.7402 51.6925 24.7402C23.3313 24.7402 0.257812 47.8138 0.257812 76.1749C0.257812 104.536 23.3313 127.61 51.6925 127.61C61.6174 127.61 70.8929 124.781 78.761 119.892L114.332 155.461C115.851 156.98 117.847 157.741 119.842 157.741C121.837 157.741 123.833 156.98 125.352 155.461L130.977 149.837C134.016 146.799 134.016 141.855 130.977 138.816ZM5.45313 76.1749C5.45313 50.6783 26.1959 29.9356 51.6925 29.9356C77.1892 29.9356 97.9319 50.6783 97.9319 76.1749C97.9319 101.672 77.1892 122.414 51.6925 122.414C26.1959 122.414 5.45313 101.672 5.45313 76.1749ZM92.3956 107.581L98.145 113.332L88.8472 122.629L83.0968 116.879C86.5773 114.188 89.7036 111.062 92.3956 107.581ZM127.304 146.164L121.679 151.787C120.667 152.801 119.019 152.801 118.006 151.787L92.5215 126.304L101.819 117.005L127.304 142.489C128.316 143.503 128.316 145.151 127.304 146.164Z" fill="black"/>
<path d="M69.8791 76.1754C69.8791 77.6102 71.043 78.773 72.4778 78.773C73.9115 78.773 75.0754 77.6102 75.0754 76.1754C75.0754 67.25 69.876 58.978 61.8314 55.1018C60.5386 54.4788 58.9861 55.0227 58.3631 56.3144C57.7411 57.6072 58.2839 59.1597 59.5767 59.7827C65.8354 62.7974 69.8791 69.2317 69.8791 76.1754Z" fill="black"/>
<path d="M51.7359 57.9912C53.1707 57.9912 54.3336 56.8284 54.3336 55.3936C54.3336 53.9588 53.1707 52.7959 51.7359 52.7959H51.6953C50.2605 52.7959 49.0977 53.9588 49.0977 55.3936C49.0977 56.8284 50.2605 57.9912 51.6953 57.9912H51.7359Z" fill="black"/>
</g>
<defs>
<clipPath id="clip0_3647_3435">
<rect width="133" height="133" fill="white" transform="translate(0 25)"/>
</clipPath>
</defs>
</svg>
