<svg width="24" height="24" viewBox="0 0 24 24" fill="none" xmlns="http://www.w3.org/2000/svg">
<path d="M18.48 17.7864C18.0658 17.7864 17.73 18.1222 17.73 18.5364C17.73 18.9506 18.0658 19.2864 18.48 19.2864V17.7864ZM21 19.2864C21.4142 19.2864 21.75 18.9506 21.75 18.5364C21.75 18.1222 21.4142 17.7864 21 17.7864V19.2864ZM10.169 11.2937C9.75477 11.2937 9.41898 11.6294 9.41898 12.0437C9.41898 12.4579 9.75477 12.7937 10.169 12.7937V11.2937ZM21 12.7937C21.4142 12.7937 21.75 12.4579 21.75 12.0437C21.75 11.6294 21.4142 11.2937 21 11.2937V12.7937ZM12.801 6.30078C13.2152 6.30078 13.551 5.96499 13.551 5.55078C13.551 5.13657 13.2152 4.80078 12.801 4.80078V6.30078ZM3 4.80078C2.58579 4.80078 2.25 5.13657 2.25 5.55078C2.25 5.96499 2.58579 6.30078 3 6.30078V4.80078ZM21 6.30078C21.4142 6.30078 21.75 5.96499 21.75 5.55078C21.75 5.13657 21.4142 4.80078 21 4.80078V6.30078ZM18.48 4.80078C18.0658 4.80078 17.73 5.13657 17.73 5.55078C17.73 5.96499 18.0658 6.30078 18.48 6.30078V4.80078ZM3 17.7864C2.58579 17.7864 2.25 18.1222 2.25 18.5364C2.25 18.9506 2.58579 19.2864 3 19.2864V17.7864ZM12.801 19.2864C13.2152 19.2864 13.551 18.9506 13.551 18.5364C13.551 18.1222 13.2152 17.7864 12.801 17.7864V19.2864ZM18.48 19.2864H21V17.7864H18.48V19.2864ZM10.169 12.7937H21V11.2937H10.169V12.7937ZM12.801 4.80078H3V6.30078H12.801V4.80078ZM21 4.80078H18.48V6.30078H21V4.80078ZM3 19.2864H12.801V17.7864H3V19.2864Z" fill="black"/>
<path d="M17.8797 18.6C17.8797 19.9255 16.8052 21 15.4797 21C14.1542 21 13.0797 19.9255 13.0797 18.6C13.0797 17.2745 14.1542 16.2 15.4797 16.2C16.8052 16.2 17.8797 17.2745 17.8797 18.6Z" stroke="#046C62" stroke-width="1.5" stroke-linecap="round"/>
<path d="M9.47969 12C9.47969 13.3255 8.40517 14.4 7.07969 14.4C5.7542 14.4 4.67969 13.3255 4.67969 12C4.67969 10.6745 5.7542 9.6 7.07969 9.6C8.40517 9.6 9.47969 10.6745 9.47969 12Z" stroke="#046C62" stroke-width="1.5" stroke-linecap="round"/>
<path d="M17.8797 5.4C17.8797 6.72548 16.8052 7.8 15.4797 7.8C14.1542 7.8 13.0797 6.72548 13.0797 5.4C13.0797 4.07452 14.1542 3 15.4797 3C16.8052 3 17.8797 4.07452 17.8797 5.4Z" stroke="#046C62" stroke-width="1.5" stroke-linecap="round"/>
</svg>
