<svg width="24" height="24" viewBox="0 0 24 24" fill="none" xmlns="http://www.w3.org/2000/svg">
<path d="M6.89453 7.43059C6.89453 7.84481 7.23032 8.18059 7.64453 8.18059C8.05874 8.18059 8.39453 7.84481 8.39453 7.43059H6.89453ZM7.64453 7.12771H6.89453H7.64453ZM16.3565 7.12772H15.6065H16.3565ZM15.6065 7.4306C15.6065 7.84481 15.9423 8.1806 16.3565 8.1806C16.7707 8.1806 17.1065 7.84481 17.1065 7.4306H15.6065ZM10.8523 3.14126L10.6703 2.41368L10.6703 2.41368L10.8523 3.14126ZM13.1488 3.14126L13.3308 2.41368H13.3308L13.1488 3.14126ZM8.39453 7.43059V7.12771H6.89453V7.43059H8.39453ZM15.6065 7.12772V7.4306H17.1065V7.12772H15.6065ZM11.0343 3.86884C11.6677 3.71039 12.3333 3.71039 12.9668 3.86884L13.3308 2.41368C12.4583 2.19544 11.5427 2.19544 10.6703 2.41368L11.0343 3.86884ZM17.1065 7.12772C17.1065 4.88982 15.5355 2.96519 13.3308 2.41368L12.9668 3.86884C14.5405 4.2625 15.6065 5.61508 15.6065 7.12772H17.1065ZM8.39453 7.12771C8.39453 5.61508 9.46058 4.2625 11.0343 3.86884L10.6703 2.41368C8.46553 2.96519 6.89453 4.88982 6.89453 7.12771H8.39453Z" fill="#046C62"/>
<path d="M4.6531 17.0261L3.95839 17.3087L3.95839 17.3087L4.6531 17.0261ZM4.30609 11.3969L5.03006 11.5928L4.30609 11.3969ZM19.6939 11.3969L18.9699 11.5928L19.6939 11.3969ZM19.3469 17.0261L20.0416 17.3087V17.3087L19.3469 17.0261ZM14.0365 20.8416L13.9206 20.1006L14.0365 20.8416ZM9.96352 20.8416L10.0794 20.1006L9.96352 20.8416ZM8.65619 7.60192L8.50672 6.86697L8.65619 7.60192ZM15.3438 7.60192L15.4933 6.86697L15.4933 6.86697L15.3438 7.60192ZM9.21479 20.7245L9.0989 21.4655L9.21479 20.7245ZM4.74598 17.2544L5.44069 16.9718L5.44069 16.9718L4.74598 17.2544ZM14.7852 20.7245L14.9011 21.4655L14.7852 20.7245ZM19.254 17.2544L18.5593 16.9718V16.9718L19.254 17.2544ZM15.6199 7.65808L15.4705 8.39303L15.4705 8.39303L15.6199 7.65808ZM8.38009 7.65807L8.52956 8.39303L8.38009 7.65807ZM8.52956 8.39303L8.80567 8.33688L8.50672 6.86697L8.23062 6.92312L8.52956 8.39303ZM15.1943 8.33688L15.4705 8.39303L15.7694 6.92312L15.4933 6.86697L15.1943 8.33688ZM14.6693 19.9835L13.9206 20.1006L14.1523 21.5826L14.9011 21.4655L14.6693 19.9835ZM10.0794 20.1006L9.33068 19.9835L9.0989 21.4655L9.84762 21.5826L10.0794 20.1006ZM18.6522 16.7435L18.5593 16.9718L19.9487 17.5371L20.0416 17.3087L18.6522 16.7435ZM5.44069 16.9718L5.3478 16.7435L3.95839 17.3087L4.05128 17.537L5.44069 16.9718ZM5.34781 16.7435C4.67941 15.1005 4.56858 13.2985 5.03006 11.5928L3.58212 11.201C3.03465 13.2246 3.1667 15.3627 3.95839 17.3087L5.34781 16.7435ZM18.9699 11.5928C19.4314 13.2985 19.3206 15.1005 18.6522 16.7435L20.0416 17.3087C20.8333 15.3628 20.9654 13.2246 20.4179 11.201L18.9699 11.5928ZM13.9206 20.1006C12.6486 20.2995 11.3514 20.2995 10.0794 20.1006L9.84762 21.5826C11.2732 21.8055 12.7268 21.8055 14.1523 21.5826L13.9206 20.1006ZM8.80567 8.33688C10.9118 7.90854 13.0882 7.90854 15.1943 8.33688L15.4933 6.86697C13.1899 6.39851 10.8101 6.39851 8.50672 6.86697L8.80567 8.33688ZM9.33068 19.9835C7.55628 19.706 6.08366 18.5522 5.44069 16.9718L4.05128 17.537C4.90076 19.6251 6.82633 21.11 9.0989 21.4655L9.33068 19.9835ZM14.9011 21.4655C17.1736 21.11 19.0992 19.6251 19.9487 17.5371L18.5593 16.9718C17.9163 18.5522 16.4437 19.706 14.6693 19.9835L14.9011 21.4655ZM15.4705 8.39303C17.1912 8.74298 18.5368 9.9919 18.9699 11.5928L20.4179 11.201C19.8298 9.02744 18.0205 7.38094 15.7694 6.92312L15.4705 8.39303ZM8.23062 6.92312C5.97952 7.38094 4.17018 9.02745 3.58212 11.201L5.03006 11.5928C5.46317 9.99191 6.80883 8.74298 8.52956 8.39303L8.23062 6.92312Z" fill="black"/>
<path d="M12 13.5L12 15.5" stroke="#046C62" stroke-width="1.5" stroke-linecap="round"/>
</svg>
