<svg width="46" height="46" viewBox="0 0 46 46" fill="none" xmlns="http://www.w3.org/2000/svg">
<g clip-path="url(#clip0_3565_1825)">
<path d="M36.11 9.47596H25.162C23.874 9.47596 23 10.35 23 11.638C23 12.926 23.874 13.8 25.162 13.8H36.34C39.33 13.8 41.906 16.376 41.906 19.366V27.324C41.906 30.314 39.33 32.89 36.34 32.89H25.162C22.586 32.89 20.424 31.188 19.78 28.796L15.686 14.628L12.88 4.55396C12.052 2.16196 9.89 0.459961 7.314 0.459961H2.162C0.874 0.459961 0 1.33396 0 2.62196C0 3.90996 0.874 4.78396 2.162 4.78396H7.314C7.958 4.78396 8.602 5.19796 8.832 5.84196L11.822 15.732L15.686 30.13C16.744 34.408 20.838 37.444 25.162 37.444H36.11C41.492 37.444 46 32.936 46 27.554V19.55C46 13.984 41.722 9.47596 36.11 9.47596Z" fill="white"/>
<path d="M22.5867 41.2617H20.8847C19.5967 41.2617 18.7227 42.1357 18.7227 43.4237C18.7227 44.7117 19.5967 45.5857 20.8847 45.5857H22.5867C23.8747 45.5857 24.7487 44.7117 24.7487 43.4237C24.7027 42.0897 23.8747 41.2617 22.5867 41.2617Z" fill="white"/>
<path d="M41.907 41.2617H40.205C38.917 41.2617 38.043 42.1357 38.043 43.4237C38.043 44.7117 38.917 45.5857 40.205 45.5857H41.907C43.195 45.5857 44.069 44.7117 44.069 43.4237C44.069 42.0897 43.195 41.2617 41.907 41.2617Z" fill="white"/>
</g>
<defs>
<clipPath id="clip0_3565_1825">
<rect width="46" height="46" fill="white"/>
</clipPath>
</defs>
</svg>
