<svg width="10" height="2" viewBox="0 0 10 2" fill="none" xmlns="http://www.w3.org/2000/svg">
    <path
        d="M1 0.25C0.585786 0.25 0.25 0.585786 0.25 1C0.25 1.41421 0.585786 1.75 1 1.75V0.25ZM9 1.75C9.41421 1.75 9.75 1.41421 9.75 1C9.75 0.585786 9.41421 0.25 9 0.25V1.75ZM1 1.75H9V0.25H1V1.75Z"
        fill="#046C62" />
    <path
        d="M1 0.25C0.585786 0.25 0.25 0.585786 0.25 1C0.25 1.41421 0.585786 1.75 1 1.75V0.25ZM5 1.75C5.41421 1.75 5.75 1.41421 5.75 1C5.75 0.585786 5.41421 0.25 5 0.25V1.75ZM1 1.75H5V0.25H1V1.75Z"
        fill="black" />
</svg>
