<svg width="141" height="168" viewBox="0 0 141 168" fill="none" xmlns="http://www.w3.org/2000/svg">
<circle cx="63" cy="63" r="63" fill="#E6F0F0"/>
<path d="M118.734 116.113C122.345 118.197 121.972 127.695 120.718 128.949H74.4978H28.2795C27.0246 127.695 26.6516 118.197 30.2634 116.113C40.3438 110.295 43.9021 94.5157 45.0923 79.0256C46.2823 63.535 59.3802 51.6328 74.4983 51.6328C89.6169 51.6328 102.715 63.5353 103.905 79.0259C105.095 94.5157 108.653 110.296 118.734 116.113Z" fill="#B3E2DE"/>
<path d="M74.4995 143.063C82.2941 143.063 88.6136 136.743 88.6136 128.949H74.4995H60.3867C60.387 136.743 66.7055 143.063 74.4995 143.063Z" fill="#FFEB39"/>
<path d="M74.5014 51.6331C78.3186 51.6331 81.4324 48.5195 81.4324 44.7025C81.4324 40.8853 78.3192 37.7715 74.5014 37.7715C70.6846 37.7715 67.5703 40.8848 67.5703 44.7025C67.5703 48.5198 70.6844 51.6331 74.5014 51.6331Z" fill="#FFEB39"/>
<path d="M24.9328 105.884C23.899 104.756 22.1463 104.678 21.0179 105.712C20.6976 106.006 20.3661 106.302 20.0243 106.603C18.8748 107.613 18.7611 109.363 19.771 110.513C20.3194 111.136 21.0844 111.455 21.8541 111.455C22.5035 111.455 23.1555 111.228 23.6818 110.766C24.0535 110.44 24.4136 110.117 24.7614 109.798C25.8898 108.765 25.9667 107.012 24.9328 105.884Z" fill="#000003"/>
<path d="M26.7902 103.947C27.2724 104.283 27.8238 104.444 28.3704 104.444C29.2466 104.444 30.1085 104.029 30.6472 103.256C35.2095 96.6997 35.8961 90.2206 36.8047 78.3896C36.9221 76.8637 35.7805 75.5317 34.2541 75.4145C32.7238 75.2974 31.3964 76.4396 31.2792 77.9649C30.4231 89.1094 29.8456 94.7055 26.0987 100.09C25.2238 101.346 25.534 103.073 26.7902 103.947Z" fill="#000003"/>
<path d="M111.474 73.4011C111.752 74.7031 112.902 75.5951 114.181 75.5951C114.373 75.5951 114.567 75.5751 114.762 75.5336C116.258 75.2146 117.213 73.7427 116.894 72.2462C116.78 71.7103 116.654 71.1703 116.519 70.6416C116.142 69.1586 114.634 68.2617 113.151 68.6389C111.668 69.016 110.771 70.524 111.149 72.007C111.265 72.4662 111.375 72.9354 111.474 73.4011Z" fill="#000003"/>
<path d="M128.913 106.553C120.802 99.8071 119.021 93.235 117.891 80.1171C117.759 78.5923 116.415 77.4621 114.892 77.5945C113.368 77.726 112.238 79.0684 112.37 80.5928C113.59 94.758 115.846 102.893 125.37 110.814C125.888 111.244 126.516 111.454 127.14 111.454C127.935 111.454 128.724 111.114 129.273 110.455C130.251 109.278 130.09 107.531 128.913 106.553Z" fill="#000003"/>
<path d="M122.791 116.628C122.754 116.555 122.714 116.483 122.671 116.413C122.001 115.218 121.147 114.306 120.119 113.713C112.641 109.397 108.116 97.6552 106.668 78.8128C105.595 64.8375 95.6296 53.3831 82.6642 49.9303C83.6352 48.4203 84.2007 46.6261 84.2007 44.7015C84.201 39.3521 79.8489 35 74.499 35C69.1499 35 64.7978 39.3521 64.7978 44.7017C64.7978 46.6263 65.3638 48.4203 66.3343 49.9305C53.3689 53.3831 43.404 64.8377 42.3299 78.8131C40.8822 97.6555 36.3568 109.397 28.8795 113.713C26.7138 114.963 25.3064 117.617 24.8103 121.389C24.4884 123.837 24.3892 128.978 26.3213 130.909C26.8408 131.428 27.5456 131.72 28.2797 131.72H57.847C59.1728 139.716 66.1335 145.834 74.4998 145.834C82.8658 145.834 89.8262 139.716 91.1526 131.72H120.719C121.454 131.72 122.158 131.428 122.678 130.909C124.61 128.977 124.511 123.835 124.188 121.385C123.941 119.512 123.469 117.915 122.791 116.628ZM74.499 40.5416C76.793 40.5416 78.6592 42.4077 78.6592 44.7017C78.6592 46.9955 76.7933 48.8616 74.499 48.8616C72.2055 48.8616 70.3394 46.9955 70.3394 44.7017C70.3396 42.4077 72.2058 40.5416 74.499 40.5416ZM74.499 140.291C69.2003 140.291 64.7399 136.639 63.5003 131.72H85.4975C84.2581 136.639 79.7977 140.291 74.499 140.291ZM118.72 126.178H30.2781C30.1632 125.272 30.1027 123.959 30.2607 122.48C30.5259 120.004 31.2363 118.751 31.6494 118.513C40.9355 113.153 46.2368 100.306 47.8554 79.2376C48.9251 65.3118 60.6288 54.4032 74.499 54.4032C88.3695 54.4032 100.073 65.3121 101.143 79.2376C101.921 89.3734 103.555 97.6007 106.072 104.012H95.6551C94.1251 104.012 92.8842 105.253 92.8842 106.783C92.8842 108.314 94.1251 109.554 95.6551 109.554H108.727C109.98 111.697 111.382 113.542 112.935 115.096H85.3053C83.7755 115.096 82.5343 116.336 82.5343 117.867C82.5343 119.397 83.7755 120.638 85.3053 120.638H118.413C118.547 121.154 118.661 121.765 118.738 122.48C118.896 123.959 118.835 125.272 118.72 126.178Z" fill="#000003"/>
<path d="M102.207 162.458L46.7905 162.457C45.2607 162.457 44.0195 163.697 44.0195 165.228C44.0195 166.758 45.2599 167.999 46.7905 167.999L102.207 168C103.737 168 104.978 166.759 104.978 165.229C104.978 163.699 103.738 162.458 102.207 162.458Z" fill="#000003"/>
<path d="M75.3279 115.096H73.6655C72.1352 115.096 70.8945 116.336 70.8945 117.867C70.8945 119.397 72.1349 120.638 73.6655 120.638H75.3279C76.8577 120.638 78.0989 119.397 78.0989 117.867C78.0989 116.336 76.8582 115.096 75.3279 115.096Z" fill="#000003"/>
</svg>
