<svg width="40" height="40" viewBox="0 0 40 40" fill="none" xmlns="http://www.w3.org/2000/svg">
<path d="M30.0041 12.0878C29.8204 11.9784 29.5943 11.9708 29.4038 12.0675C29.2136 12.1645 29.085 12.3524 29.0622 12.5665C29.0396 12.7748 29.0044 12.983 28.9605 13.2015C27.731 18.8433 25.2618 21.5874 21.41 21.5874H15.7584C15.4604 21.5879 15.2038 21.8001 15.1443 22.0953L13.2604 31.0235L12.9238 33.2965C12.7303 34.3301 13.4022 35.3267 14.4244 35.5223C14.5371 35.5439 14.6515 35.555 14.7662 35.5555H18.5465C19.413 35.5582 20.1684 34.9603 20.3738 34.1092L21.901 27.9366H25.1777C29.0446 27.9366 31.7172 24.8192 32.703 19.1583C33.3538 16.4627 32.2772 13.6424 30.0041 12.0878Z" fill="#03A9F4"/>
<path d="M29.058 7.15157C27.8003 5.72842 25.9953 4.90568 24.0934 4.88872H13.553C11.9756 4.88027 10.6327 6.03151 10.4037 7.58836L7.13085 29.3674C6.97409 30.4077 7.69236 31.3777 8.73523 31.5341C8.82987 31.5484 8.92552 31.5554 9.02124 31.5553H13.9095C14.2116 31.5548 14.4716 31.3426 14.532 31.0474L16.3333 22.6665H21.5526C26.0819 22.6665 29.0747 19.5084 30.4495 13.2697C30.5048 13.021 30.5472 12.7697 30.5768 12.5166C30.8959 10.5919 30.3392 8.62544 29.058 7.15157Z" fill="#283593"/>
</svg>
