<svg width="24" height="24" viewBox="0 0 24 24" fill="none" xmlns="http://www.w3.org/2000/svg">
<path d="M13.5639 4.3011L15.1502 7.49508C15.364 7.93681 15.9378 8.35588 16.4216 8.44649L19.2905 8.92219C21.1244 9.22799 21.5519 10.5645 20.2356 11.901L17.9967 14.1549C17.6254 14.5286 17.4116 15.2649 17.5354 15.7972L18.1767 18.5834C18.683 20.7807 17.5129 21.6415 15.589 20.4862L12.9001 18.8779C12.4163 18.5834 11.6062 18.5834 11.1224 18.8779L8.43351 20.4862C6.50963 21.6302 5.33955 20.7807 5.84583 18.5834L6.48712 15.7972C6.58838 15.2535 6.37462 14.5173 6.00334 14.1436L3.76444 11.8896C2.4481 10.5645 2.87563 9.22799 4.7095 8.91086L7.57845 8.43516C8.06223 8.35588 8.63602 7.92548 8.84979 7.48376L10.4361 4.28977C11.3025 2.56819 12.6975 2.56819 13.5639 4.3011Z" fill="#FFC32B"/>
</svg>
