<svg width="126" height="143" viewBox="0 0 126 143" fill="none" xmlns="http://www.w3.org/2000/svg">
<circle cx="63" cy="80" r="63" fill="#E6F0F0"/>
<g clip-path="url(#clip0_3699_7023)">
<path fill-rule="evenodd" clip-rule="evenodd" d="M63.0034 2.18848C51.8053 2.18848 42.7266 11.2707 42.7266 22.4809C42.7266 33.691 51.8053 42.7796 63.0034 42.7796C74.1954 42.7796 83.2741 33.691 83.2741 22.4809C83.2741 11.2707 74.1952 2.18848 63.0034 2.18848Z" fill="#F4D5FF"/>
<path fill-rule="evenodd" clip-rule="evenodd" d="M63.0002 53.5928H23.4565L15.6172 68.9906H20.5376H55.1606L63.0002 53.5928Z" fill="#D8FDFF"/>
<path fill-rule="evenodd" clip-rule="evenodd" d="M102.543 53.5928H63L70.8393 68.9906H105.456H110.383L102.543 53.5928Z" fill="#D8FDFF"/>
<path fill-rule="evenodd" clip-rule="evenodd" d="M55.1621 68.9906H20.5391V109.811H63.0016V53.5928L55.1621 68.9906Z" fill="#B3E2DE"/>
<path fill-rule="evenodd" clip-rule="evenodd" d="M105.456 68.9906H70.8393L63 53.5928V109.811H105.456V68.9906Z" fill="#B3E2DE"/>
<path d="M112.335 67.9975L104.495 52.5999C104.122 51.8663 103.368 51.4043 102.545 51.4043H63.0015H23.4577C22.6343 51.4043 21.8808 51.8663 21.5072 52.5999L13.6679 67.9975C13.3225 68.6762 13.3545 69.4853 13.7524 70.1345C14.1502 70.7836 14.8569 71.1791 15.6181 71.1791H18.3499V109.811C18.3499 111.02 19.3298 112 20.5385 112H105.457C106.666 112 107.646 111.02 107.646 109.811V71.1793H110.384C111.145 71.1793 111.852 70.7836 112.25 70.1347C112.648 69.4853 112.68 68.6762 112.335 67.9975ZM101.203 55.7815L106.814 66.8019H72.1824L66.5716 55.7815H101.203ZM24.7995 55.7815H59.4313L53.8204 66.8019H19.1886L24.7995 55.7815ZM103.269 107.623H65.1901V95.493C65.1901 94.2845 64.2103 93.3044 63.0015 93.3044C61.7928 93.3044 60.8129 94.2845 60.8129 95.493V107.623H22.7275V71.1793H55.1622C55.9856 71.1793 56.7391 70.7175 57.1127 69.9837L60.8129 62.7156V75.8397C60.8129 77.0482 61.7928 78.0283 63.0015 78.0283C64.2103 78.0283 65.1901 77.0482 65.1901 75.8397V62.7156L68.8904 69.9837C69.264 70.7175 70.0175 71.1793 70.8408 71.1793H103.269V107.623Z" fill="black"/>
<path d="M44.2876 95.6367H31.8253C30.6166 95.6367 29.6367 96.6168 29.6367 97.8253C29.6367 99.0338 30.6166 100.014 31.8253 100.014H44.2876C45.4963 100.014 46.4762 99.0338 46.4762 97.8253C46.4762 96.6168 45.4963 95.6367 44.2876 95.6367Z" fill="black"/>
<path d="M63.0006 44.9685C75.3845 44.9685 85.4599 34.8807 85.4599 22.4812C85.4597 10.085 75.3845 0 63.0006 0C50.6132 0 40.5352 10.085 40.5352 22.4812C40.5352 34.8807 50.613 44.9685 63.0006 44.9685ZM63.0006 4.37718C72.9711 4.37718 81.0827 12.4986 81.0827 22.4812C81.0827 32.4673 72.9711 40.5913 63.0006 40.5913C53.0267 40.5913 44.9123 32.4673 44.9123 22.4812C44.9123 12.4986 53.0265 4.37718 63.0006 4.37718Z" fill="black"/>
<path d="M53.1874 25.7635L59.0128 30.7014C59.4096 31.0378 59.9117 31.2205 60.4279 31.2205C60.4901 31.2205 60.5525 31.2179 60.6149 31.2127C61.1957 31.1628 61.7326 30.8835 62.1066 30.4364L73.0692 17.3342C73.8449 16.4073 73.7221 15.027 72.7952 14.2511C71.8681 13.4759 70.488 13.5982 69.7124 14.5253L60.1631 25.9382L56.0182 22.4244C55.0961 21.6428 53.7149 21.7562 52.9336 22.6787C52.1516 23.601 52.2654 24.9818 53.1874 25.7635Z" fill="black"/>
<path d="M20.005 24.6702H29.4742C30.6829 24.6702 31.6627 23.6901 31.6627 22.4816C31.6627 21.273 30.6829 20.293 29.4742 20.293H20.005C18.7962 20.293 17.8164 21.273 17.8164 22.4816C17.8164 23.6901 18.7962 24.6702 20.005 24.6702Z" fill="black"/>
<path d="M18.9844 9.44121L28.4535 14.4354C28.7792 14.6072 29.1283 14.6886 29.4728 14.6886C30.2585 14.6886 31.0183 14.2642 31.4105 13.5205C31.9743 12.4514 31.5648 11.1275 30.4957 10.5637L21.0263 5.56959C19.9576 5.00581 18.6333 5.41508 18.0696 6.48442C17.5058 7.55355 17.9153 8.87743 18.9844 9.44121Z" fill="black"/>
<path d="M18.069 38.477C18.4609 39.2211 19.2208 39.6461 20.0072 39.6461C20.351 39.6461 20.7001 39.5649 21.0253 39.3936L30.4945 34.4058C31.5638 33.8424 31.9742 32.5188 31.4108 31.4494C30.8475 30.3798 29.5238 29.9697 28.4545 30.5328L18.9853 35.5206C17.916 36.084 17.5058 37.4076 18.069 38.477Z" fill="black"/>
<path d="M96.5206 24.6702H105.99C107.199 24.6702 108.178 23.6901 108.178 22.4816C108.178 21.273 107.199 20.293 105.99 20.293H96.5206C95.3119 20.293 94.332 21.273 94.332 22.4816C94.332 23.6901 95.3119 24.6702 96.5206 24.6702Z" fill="black"/>
<path d="M96.5227 14.6887C96.867 14.6887 97.2163 14.6073 97.542 14.4355L107.011 9.44136C108.08 8.87758 108.49 7.5537 107.926 6.48457C107.362 5.41545 106.038 5.00553 104.969 5.56974L95.5 10.5639C94.4309 11.1277 94.0214 12.4515 94.5852 13.5207C94.9774 14.2644 95.7368 14.6887 96.5227 14.6887Z" fill="black"/>
<path d="M95.501 34.4059L104.97 39.3937C105.296 39.5651 105.644 39.6462 105.988 39.6462C106.775 39.6462 107.535 39.2214 107.927 38.4771C108.49 37.4078 108.08 36.0841 107.01 35.5208L97.541 30.533C96.4715 29.9696 95.148 30.3798 94.5847 31.4495C94.0213 32.5189 94.4317 33.8425 95.501 34.4059Z" fill="black"/>
<path d="M63.0011 83.4775C61.7923 83.4775 60.8125 84.4576 60.8125 85.6661V85.6786C60.8125 86.8871 61.7923 87.8611 63.0011 87.8611C64.2098 87.8611 65.1897 86.8749 65.1897 85.6663C65.1897 84.4578 64.2098 83.4775 63.0011 83.4775Z" fill="black"/>
</g>
<defs>
<clipPath id="clip0_3699_7023">
<rect width="112" height="112" fill="white" transform="translate(7)"/>
</clipPath>
</defs>
</svg>
